<svg width="1885" height="1920" viewBox="0 0 1885 1920" fill="none" xmlns="http://www.w3.org/2000/svg">
<path d="M79.9479 1895.02C103.411 1881.29 128.833 1866.41 154.068 1851.65C113.661 1815.41 84.7135 1791.14 67.4218 1770.91C43.4114 1807.67 18.7135 1848 6.83329 1874.1C2.54162 1883.53 -1.34379 1894.12 0.9635 1904.77C8.41142 1939.23 61.3802 1905.86 79.9479 1895.02Z" fill="#5C5D79"/>
<path d="M921.093 689.786C919.734 680.651 913.187 673.255 906.734 666.625C903.401 663.198 899.896 659.771 896.052 656.948C862.896 690.974 835.484 719.24 816.859 738.682C807.083 748.865 791.479 749.88 780.411 741.734C801.807 763.828 831.14 780.505 861.588 767.865C861.802 767.771 862 767.651 862.198 767.573C881.093 746.922 900.067 726.255 919.119 705.589C920.76 700.453 921.864 695.094 921.093 689.786Z" fill="#B49BE4"/>
<path d="M816.86 738.682C835.485 719.24 862.896 690.974 896.052 656.948C955.412 596.042 1033.31 516.667 1112.85 436.255C1174.85 373.589 1237.86 310.292 1293.9 254.641C1349.91 199 1398.98 150.948 1432.86 118.984C1445.48 107.068 1459.8 93.0521 1474.15 81.5208C1481.31 75.7604 1488.43 70.651 1495 66.8021C1501.56 62.9219 1507.57 60.3489 1512.2 59.1875C1519.6 57.2916 1527.57 56.3594 1536.07 56.3594C1561.19 56.2656 1590.83 64.9479 1618.65 78.8125C1618.84 78.9062 1619.04 79.0156 1619.23 79.1041C1627.03 79.9479 1634.8 81.2135 1642.51 82.9323C1654.39 72.2291 1665.56 63.0677 1672.73 59.2396C1676.73 57.1041 1680.77 55.1198 1684.84 53.2916C1671.84 44.5052 1657.96 36.2656 1643.35 29.0156C1610.07 12.5729 1573.36 0.864564 1536.07 0.770813C1523.49 0.770813 1510.86 2.16144 1498.45 5.31769C1486.97 8.26561 1476.57 13.1614 1466.81 18.8802C1452.19 27.5052 1438.91 38.1458 1426.77 48.7708C1414.67 59.3854 1403.73 70.0521 1394.72 78.5469C1360.15 111.161 1310.92 159.375 1254.72 215.198C1086.15 382.667 855.334 618.255 776.74 700.198C766.11 711.281 766.474 728.865 777.557 739.495C778.448 740.349 779.438 741.016 780.412 741.734C791.479 749.88 807.084 748.865 816.86 738.682Z" fill="#B9BBC0"/>
<path d="M1642.5 82.9323C1660.36 86.9062 1677.86 93.1198 1694.47 100.974C1694.5 100.984 1694.55 101.016 1694.59 101.026C1699.88 103.531 1705.09 106.172 1710.19 108.984C1727.04 118.318 1743.79 128.922 1759.77 140.708C1760.76 141.437 1761.77 142.135 1762.76 142.88C1800 170.865 1832.73 205.599 1852.07 246.932C1852.8 248.521 1853.4 250.104 1854.07 251.693C1872.1 229.187 1887.37 202.615 1883.83 173.88C1881.55 155.521 1870.64 139.453 1858.98 125.068C1836.49 97.2656 1803.69 62.401 1770.8 48.3854C1742.08 36.1458 1712.8 40.7343 1684.84 53.2916C1680.77 55.1198 1676.73 57.1041 1672.73 59.2395C1665.56 63.0677 1654.39 72.2291 1642.5 82.9323Z" fill="#D2C3EF"/>
<path d="M118.677 1624.98C119.505 1624.15 120.849 1624.15 121.672 1624.97C122.505 1625.81 122.505 1627.15 121.672 1627.97C120.849 1628.8 119.505 1628.8 118.672 1627.97C117.849 1627.15 117.849 1625.81 118.677 1624.98ZM146.073 1655.72C146.896 1654.88 148.245 1654.88 149.068 1655.71C149.901 1656.55 149.901 1657.88 149.073 1658.71C148.245 1659.53 146.906 1659.53 146.073 1658.71C145.239 1657.88 145.239 1656.55 146.073 1655.72ZM148.364 1598.28C149.88 1596.77 152.344 1596.77 153.854 1598.28C155.37 1599.8 155.375 1602.27 153.854 1603.77C152.344 1605.29 149.88 1605.29 148.364 1603.77C146.854 1602.27 146.854 1599.8 148.364 1598.28ZM205.828 1706.08C205 1706.91 203.661 1706.91 202.828 1706.08C202.005 1705.26 202.005 1703.91 202.828 1703.08C203.661 1702.26 205 1702.26 205.828 1703.08C206.656 1703.91 206.656 1705.26 205.828 1706.08ZM203.078 1619.85C205.021 1617.91 208.177 1617.92 210.12 1619.85C212.068 1621.81 212.068 1624.96 210.12 1626.91C208.177 1628.85 205.021 1628.85 203.078 1626.9C201.135 1624.96 201.13 1621.8 203.078 1619.85ZM222.969 1690.31C224.917 1688.36 228.068 1688.36 230.01 1690.31C231.958 1692.26 231.958 1695.41 230.01 1697.36C228.068 1699.29 224.911 1699.29 222.969 1697.36C221.021 1695.41 221.026 1692.26 222.969 1690.31ZM255.609 1560.27C256.432 1559.44 257.781 1559.44 258.614 1560.27C259.437 1561.09 259.437 1562.44 258.614 1563.27C257.781 1564.09 256.432 1564.09 255.609 1563.27C254.781 1562.43 254.781 1561.09 255.609 1560.27ZM265.427 1637.02C266.25 1636.17 267.594 1636.17 268.422 1637.02C269.25 1637.84 269.25 1639.19 268.427 1640.02C267.594 1640.84 266.25 1640.84 265.427 1640C264.594 1639.19 264.594 1637.84 265.427 1637.02ZM297.198 1743.92C299.146 1741.97 302.297 1741.96 304.25 1743.91C306.187 1745.85 306.187 1749.02 304.25 1750.96C302.297 1752.91 299.146 1752.91 297.198 1750.96C295.255 1749.02 295.255 1745.86 297.198 1743.92ZM302.265 1587.65C303.088 1586.81 304.432 1586.81 305.26 1587.65C306.094 1588.48 306.094 1589.81 305.26 1590.64C304.432 1591.47 303.088 1591.47 302.265 1590.64C301.432 1589.81 301.437 1588.48 302.265 1587.65ZM321.323 1541.92C322.156 1541.09 323.495 1541.09 324.328 1541.92C325.151 1542.74 325.151 1544.09 324.328 1544.92C323.495 1545.74 322.151 1545.74 321.323 1544.92C320.5 1544.09 320.5 1542.74 321.323 1541.92ZM341.276 1413.32C342.687 1411.91 344.963 1411.91 346.375 1413.32C347.776 1414.73 347.786 1417.02 346.375 1418.41C344.963 1419.83 342.687 1419.83 341.281 1418.41C339.87 1417.02 339.87 1414.72 341.276 1413.32ZM347.146 1488.84C346.312 1489.67 344.979 1489.67 344.146 1488.83C343.312 1488 343.312 1486.67 344.146 1485.83C344.974 1485 346.312 1485 347.141 1485.83C347.974 1486.67 347.974 1488 347.146 1488.84ZM348.38 1666.17C347.552 1667 346.213 1667 345.38 1666.17C344.557 1665.33 344.557 1664 345.38 1663.17C346.213 1662.33 347.552 1662.33 348.38 1663.17C349.208 1664 349.208 1665.35 348.38 1666.17ZM382.073 1318.2C382.896 1317.38 384.239 1317.38 385.068 1318.2C385.896 1319.04 385.896 1320.38 385.068 1321.2C384.239 1322.03 382.896 1322.03 382.073 1321.2C381.245 1320.38 381.239 1319.03 382.073 1318.2ZM433.703 1320.9C435.114 1319.48 437.39 1319.48 438.802 1320.9C440.208 1322.31 440.208 1324.59 438.802 1325.98C437.401 1327.4 435.114 1327.4 433.708 1325.98C432.297 1324.59 432.297 1322.29 433.703 1320.9ZM474.193 1367.92C475.015 1367.09 476.354 1367.09 477.187 1367.92C478.01 1368.76 478.01 1370.09 477.187 1370.92C476.354 1371.74 475.015 1371.74 474.193 1370.92C473.359 1370.09 473.359 1368.76 474.193 1367.92ZM503.073 1243.57C503.901 1242.74 505.245 1242.74 506.068 1243.57C506.901 1244.41 506.901 1245.74 506.068 1246.57C505.245 1247.4 503.901 1247.41 503.073 1246.57C502.245 1245.74 502.245 1244.41 503.073 1243.57ZM511.005 1300.83C514.036 1297.79 518.958 1297.79 521.984 1300.83C525.021 1303.85 525.021 1308.77 521.984 1311.8C518.953 1314.83 514.036 1314.84 511.005 1311.8C507.979 1308.77 507.974 1303.85 511.005 1300.83ZM524.552 1228.1C526.489 1226.16 529.64 1226.16 531.594 1228.1C533.536 1230.04 533.536 1233.2 531.594 1235.15C529.651 1237.09 526.489 1237.09 524.552 1235.15C522.599 1233.2 522.599 1230.05 524.552 1228.1ZM608.443 1387.85C650.515 1347.23 692.708 1306.72 734.927 1266.26C811.323 1193.03 888.625 1120.68 964.307 1046.73C981.161 1030.27 1001.73 995.427 1027.51 1014.52C1035.96 1020.79 1056.21 1031.48 1052.62 1044.14C1050.86 1050.38 1045.81 1055.07 1041 1059.41C970.161 1122.35 902.932 1190.05 833.359 1254.45C738.021 1342.69 643.375 1432.21 546.302 1518.2C542.896 1521.23 539.234 1524.37 534.745 1525.1C527.042 1526.39 520.271 1520.33 514.818 1514.74C508.484 1508.27 500.161 1500.73 503.802 1490.79C505.359 1486.53 508.37 1483 511.469 1479.69C524.922 1465.39 540.557 1453.67 554.453 1440.15C572.417 1422.68 590.417 1405.26 608.443 1387.85ZM574.031 1230.74C575.974 1228.81 579.13 1228.81 581.073 1230.74C583.021 1232.69 583.021 1235.85 581.073 1237.8C579.13 1239.74 575.974 1239.74 574.031 1237.8C572.083 1235.85 572.083 1232.69 574.031 1230.74ZM590.896 1134.65C590.062 1135.48 588.719 1135.48 587.896 1134.65C587.062 1133.83 587.062 1132.48 587.896 1131.65C588.719 1130.83 590.062 1130.83 590.885 1131.65C591.719 1132.48 591.719 1133.83 590.896 1134.65ZM586.62 1091.48C588.568 1089.53 591.719 1089.53 593.661 1091.48C595.614 1093.41 595.614 1096.57 593.661 1098.52C591.719 1100.47 588.562 1100.47 586.62 1098.52C584.672 1096.57 584.677 1093.43 586.62 1091.48ZM656.693 1086.96C657.526 1086.14 658.87 1086.14 659.693 1086.96C660.526 1087.79 660.526 1089.14 659.693 1089.96C658.87 1090.79 657.526 1090.79 656.693 1089.96C655.87 1089.12 655.87 1087.79 656.693 1086.96ZM684.094 1117.69C684.922 1116.86 686.265 1116.86 687.088 1117.69C687.922 1118.52 687.922 1119.86 687.088 1120.69C686.265 1121.52 684.922 1121.52 684.094 1120.69C683.26 1119.85 683.26 1118.52 684.094 1117.69ZM686.385 1060.27C687.901 1058.74 690.364 1058.74 691.875 1060.27C693.391 1061.77 693.391 1064.24 691.875 1065.76C690.364 1067.27 687.901 1067.27 686.385 1065.74C684.875 1064.24 684.875 1061.77 686.385 1060.27ZM699.583 1011.43C700.417 1010.6 701.75 1010.6 702.583 1011.43C703.417 1012.26 703.417 1013.6 702.583 1014.43C701.755 1015.26 700.417 1015.26 699.583 1014.43C698.755 1013.6 698.755 1012.26 699.583 1011.43ZM734.385 957.958C735.219 957.135 736.557 957.12 737.391 957.958C738.213 958.786 738.213 960.12 737.391 960.958C736.557 961.786 735.219 961.786 734.385 960.958C733.562 960.12 733.562 958.786 734.385 957.958ZM737.734 918.349C738.557 917.521 739.906 917.521 740.729 918.349C741.562 919.172 741.562 920.521 740.734 921.349C739.906 922.172 738.557 922.172 737.734 921.349C736.901 920.521 736.901 919.172 737.734 918.349ZM754.526 945.188C756.474 943.24 759.625 943.24 761.568 945.188C763.515 947.135 763.515 950.281 761.568 952.229C759.625 954.172 756.469 954.172 754.526 952.229C752.578 950.281 752.583 947.135 754.526 945.188ZM802.172 879.974C803 879.146 804.338 879.146 805.172 879.974C805.995 880.802 806 882.146 805.172 882.974C804.344 883.802 803 883.802 802.172 882.974C801.344 882.146 801.344 880.802 802.172 879.974ZM837.906 833.906C838.734 833.078 840.073 833.078 840.906 833.906C841.739 834.734 841.739 836.078 840.906 836.906C840.083 837.734 838.734 837.734 837.906 836.906C837.078 836.078 837.078 834.734 837.906 833.906ZM893.958 765.401C893.135 766.229 891.786 766.229 890.958 765.401C890.135 764.573 890.135 763.229 890.958 762.401C891.786 761.573 893.135 761.573 893.958 762.401C894.786 763.229 894.786 764.573 893.958 765.401ZM918.135 756.667C916.198 758.615 913.042 758.615 911.094 756.667C909.161 754.734 909.161 751.573 911.094 749.625C913.042 747.682 916.198 747.682 918.135 749.625C920.094 751.573 920.094 754.719 918.135 756.667ZM909.135 821.292C911.307 819.135 914.812 819.135 916.984 821.292C919.146 823.469 919.146 826.974 916.984 829.135C914.812 831.307 911.307 831.307 909.146 829.135C906.974 826.974 906.974 823.469 909.135 821.292ZM992.104 656.641C992.932 655.812 994.281 655.812 995.104 656.641C995.932 657.469 995.932 658.812 995.104 659.641C994.281 660.469 992.932 660.469 992.104 659.641C991.281 658.812 991.281 657.469 992.104 656.641ZM1071.05 582.984C1071.88 582.161 1073.23 582.161 1074.04 582.984C1074.88 583.813 1074.88 585.161 1074.05 585.984C1073.23 586.813 1071.88 586.813 1071.05 585.984C1070.21 585.161 1070.23 583.828 1071.05 582.984ZM1179.93 488.906C1181.88 486.958 1185.03 486.958 1186.97 488.906C1188.92 490.854 1188.92 494 1186.97 495.948C1185.03 497.896 1181.88 497.896 1179.93 495.948C1177.98 494 1177.98 490.854 1179.93 488.906ZM1228.1 408.161C1228.93 407.333 1230.28 407.333 1231.1 408.161C1231.95 408.984 1231.95 410.318 1231.1 411.161C1230.28 411.984 1228.93 411.984 1228.12 411.161C1227.28 410.318 1227.28 408.984 1228.1 408.161ZM1246.56 413.479C1248.71 411.333 1252.17 411.333 1254.31 413.479C1256.45 415.615 1256.45 419.078 1254.31 421.214C1252.17 423.359 1248.71 423.359 1246.56 421.214C1244.43 419.078 1244.43 415.615 1246.56 413.479ZM1275.17 344.922C1277.83 342.266 1282.12 342.266 1284.77 344.922C1287.41 347.563 1287.41 351.854 1284.77 354.505C1282.12 357.146 1277.83 357.146 1275.17 354.495C1272.53 351.854 1272.53 347.563 1275.17 344.922ZM1303.71 422.615C1304.53 421.786 1305.86 421.802 1306.71 422.625C1307.53 423.453 1307.53 424.786 1306.71 425.625C1305.88 426.453 1304.53 426.453 1303.71 425.625C1302.88 424.786 1302.88 423.453 1303.71 422.615ZM1342.56 358.651C1343.39 357.828 1344.72 357.828 1345.56 358.651C1346.39 359.495 1346.39 360.828 1345.56 361.651C1344.72 362.479 1343.39 362.479 1342.56 361.651C1341.72 360.828 1341.73 359.495 1342.56 358.651ZM1386.45 314.76C1387.28 313.932 1388.62 313.932 1389.45 314.76C1390.28 315.589 1390.28 316.932 1389.45 317.76C1388.62 318.589 1387.29 318.589 1386.45 317.76C1385.62 316.932 1385.62 315.589 1386.45 314.76ZM1428.98 224.375C1429.81 223.547 1431.15 223.547 1431.98 224.375C1432.81 225.198 1432.81 226.547 1431.98 227.375C1431.15 228.214 1429.8 228.198 1428.98 227.375C1428.16 226.547 1428.16 225.198 1428.98 224.375ZM1432.32 184.771C1433.15 183.948 1434.49 183.948 1435.32 184.771C1436.15 185.599 1436.15 186.948 1435.32 187.771C1434.49 188.599 1433.15 188.599 1432.32 187.771C1431.49 186.948 1431.49 185.599 1432.32 184.771ZM1447.16 283.281C1449.32 281.104 1452.84 281.104 1455 283.281C1457.17 285.437 1457.17 288.948 1455 291.12C1452.84 293.281 1449.32 293.281 1447.16 291.12C1444.98 288.948 1444.98 285.437 1447.16 283.281ZM1449.12 211.615C1451.07 209.667 1454.21 209.667 1456.16 211.615C1458.1 213.547 1458.1 216.708 1456.16 218.651C1454.21 220.589 1451.07 220.599 1449.12 218.651C1447.17 216.708 1447.17 213.547 1449.12 211.615ZM1486.07 284.453C1486.9 283.625 1488.23 283.625 1489.07 284.453C1489.9 285.292 1489.9 286.625 1489.07 287.453C1488.24 288.281 1486.9 288.281 1486.07 287.453C1485.24 286.625 1485.24 285.281 1486.07 284.453ZM1529 221.026C1529.83 220.188 1531.16 220.198 1532 221.026C1532.83 221.854 1532.83 223.198 1532 224.026C1531.16 224.854 1529.83 224.854 1529 224.026C1528.16 223.198 1528.16 221.854 1529 221.026ZM1530.12 118.615C1530.96 117.786 1532.29 117.786 1533.12 118.615C1533.95 119.453 1533.95 120.786 1533.12 121.615C1532.29 122.453 1530.96 122.453 1530.12 121.615C1529.31 120.786 1529.31 119.453 1530.12 118.615ZM1535.33 181.411C1536.16 182.24 1536.16 183.589 1535.33 184.411C1534.51 185.24 1533.16 185.24 1532.35 184.411C1531.51 183.589 1531.51 182.255 1532.35 181.411C1533.16 180.589 1534.51 180.589 1535.33 181.411ZM1537.71 287.146C1539.1 285.745 1541.39 285.745 1542.79 287.146C1544.2 288.563 1544.2 290.828 1542.79 292.24C1541.39 293.651 1539.1 293.651 1537.71 292.24C1536.29 290.839 1536.29 288.547 1537.71 287.146ZM1567.31 167.068C1569.24 165.12 1572.4 165.12 1574.35 167.068C1576.29 169.016 1576.29 172.172 1574.35 174.12C1572.4 176.052 1569.24 176.052 1567.31 174.12C1565.36 172.172 1565.36 169.016 1567.31 167.068ZM1739.65 258.641C1741.6 260.589 1741.6 263.734 1739.65 265.682C1737.71 267.625 1734.56 267.625 1732.61 265.682C1730.67 263.734 1730.67 260.589 1732.61 258.641C1734.56 256.693 1737.71 256.693 1739.65 258.641ZM1756 180.495C1756.83 179.667 1758.16 179.667 1759 180.495C1759.83 181.318 1759.83 182.667 1759 183.495C1758.17 184.318 1756.83 184.318 1756 183.495C1755.16 182.651 1755.17 181.318 1756 180.495ZM1776.14 167.719C1778.08 165.771 1781.24 165.771 1783.17 167.719C1785.12 169.667 1785.12 172.813 1783.17 174.76C1781.24 176.708 1778.08 176.708 1776.14 174.76C1774.19 172.828 1774.19 169.667 1776.14 167.719ZM1821.08 234.104C1821.9 233.281 1823.24 233.281 1824.07 234.104C1824.9 234.932 1824.9 236.266 1824.07 237.094C1823.24 237.932 1821.9 237.932 1821.07 237.104C1820.24 236.266 1820.24 234.932 1821.08 234.104ZM1830.33 266.24C1831.17 265.411 1832.51 265.411 1833.33 266.229C1834.16 267.068 1834.16 268.401 1833.33 269.229C1832.51 270.068 1831.16 270.068 1830.33 269.229C1829.51 268.401 1829.51 267.068 1830.33 266.24ZM1635.59 201.401C1633.64 203.349 1630.48 203.349 1628.55 201.401C1626.6 199.453 1626.6 196.292 1628.55 194.349C1630.48 192.411 1633.64 192.411 1635.59 194.359C1637.53 196.307 1637.53 199.453 1635.59 201.401ZM1678.03 197.016C1679.97 195.068 1683.12 195.068 1685.07 197.016C1687.02 198.948 1687.02 202.104 1685.07 204.052C1683.12 205.984 1679.96 205.984 1678.03 204.052C1676.08 202.104 1676.08 198.948 1678.03 197.016ZM1610.07 212.828C1609.24 213.651 1607.9 213.667 1607.07 212.828C1606.24 212.016 1606.24 210.651 1607.07 209.828C1607.9 209 1609.24 209 1610.07 209.828C1610.9 210.667 1610.9 212 1610.07 212.828ZM154.068 1851.65C161.89 1858.67 170.114 1866.1 178.786 1874.07C198.859 1892.49 238.094 1866.12 255.995 1850.59C760.864 1412.49 1516.86 719.292 1728.65 516.292C1804.24 443.865 1894.04 346.615 1854.07 251.693C1853.4 250.104 1852.8 248.521 1852.07 246.932C1832.73 205.599 1800 170.865 1762.76 142.88L1762.35 143.88C1761.51 144.708 1760.16 144.708 1759.35 143.88C1758.51 143.052 1758.51 141.708 1759.35 140.88L1759.77 140.708C1743.79 128.922 1727.04 118.318 1710.19 108.984C1705.09 106.172 1699.88 103.531 1694.59 101.026C1693.76 101.625 1692.62 101.651 1691.88 100.906L1691.29 99.4792C1692.36 99.9583 1693.41 100.469 1694.47 100.974C1677.86 93.1198 1660.36 86.9063 1642.51 82.9323C1634.8 81.2135 1627.03 79.9479 1619.23 79.1042C1597.95 76.8385 1576.51 77.974 1555.76 83.6406C1516.33 94.4115 1479.84 116.745 1451.21 145.932C1333.39 266.052 1198.6 406.333 1061.72 552.266C1062.32 551.625 1062.92 550.984 1063.53 550.349L1064.79 550.854C1065.61 551.693 1065.61 553.026 1064.79 553.854C1063.96 554.682 1062.61 554.682 1061.77 553.854L1061.31 552.708C1013.95 603.198 966.359 654.349 919.12 705.589C900.068 726.255 881.094 746.922 862.198 767.573C799.042 836.615 736.984 905.375 677.552 972.359C488.255 1185.72 292.562 1415.85 107.75 1632.35C45.1926 1705.63 32.3905 1729.95 67.4217 1770.91C84.7134 1791.14 113.661 1815.41 154.068 1851.65Z" fill="#8A63D5"/>
<path d="M503.802 1490.79C500.162 1500.73 508.484 1508.27 514.818 1514.74C520.271 1520.33 527.042 1526.39 534.745 1525.1C539.234 1524.37 542.896 1521.23 546.302 1518.2C643.375 1432.21 738.021 1342.69 833.359 1254.45C902.932 1190.05 970.162 1122.35 1041 1059.41C1045.81 1055.07 1050.86 1050.37 1052.63 1044.14C1056.21 1031.48 1035.96 1020.79 1027.51 1014.52C1001.73 995.427 981.162 1030.27 964.307 1046.73C888.625 1120.68 811.323 1193.03 734.927 1266.26C692.708 1306.72 650.516 1347.23 608.443 1387.85C590.417 1405.26 572.417 1422.68 554.453 1440.15C540.557 1453.67 524.922 1465.39 511.469 1479.69C508.37 1483 505.359 1486.53 503.802 1490.79Z" fill="#B9BBC0"/>
<path d="M1783.17 174.76C1785.12 172.813 1785.12 169.667 1783.17 167.719C1781.24 165.771 1778.08 165.771 1776.14 167.719C1774.19 169.667 1774.19 172.828 1776.14 174.76C1778.08 176.708 1781.24 176.708 1783.17 174.76Z" fill="#F1F2F2"/>
<path d="M1759 183.495C1759.83 182.667 1759.83 181.318 1759 180.495C1758.16 179.667 1756.83 179.667 1756 180.495C1755.17 181.318 1755.16 182.651 1756 183.495C1756.83 184.318 1758.17 184.318 1759 183.495Z" fill="#F1F2F2"/>
<path d="M1759.77 140.708L1759.35 140.88C1758.5 141.708 1758.5 143.052 1759.35 143.88C1760.16 144.708 1761.5 144.708 1762.35 143.88L1762.76 142.88C1761.77 142.135 1760.76 141.437 1759.77 140.708Z" fill="#F1F2F2"/>
<path d="M1685.07 204.052C1687.02 202.104 1687.02 198.948 1685.07 197.016C1683.12 195.068 1679.97 195.068 1678.03 197.016C1676.08 198.948 1676.08 202.104 1678.03 204.052C1679.96 205.984 1683.12 205.984 1685.07 204.052Z" fill="#F1F2F2"/>
<path d="M1824.07 237.094C1824.9 236.266 1824.9 234.932 1824.07 234.104C1823.24 233.281 1821.9 233.281 1821.08 234.104C1820.24 234.932 1820.24 236.266 1821.07 237.104C1821.9 237.932 1823.24 237.932 1824.07 237.094Z" fill="#F1F2F2"/>
<path d="M1833.33 269.229C1834.16 268.401 1834.16 267.068 1833.33 266.229C1832.5 265.411 1831.17 265.411 1830.33 266.24C1829.5 267.068 1829.5 268.401 1830.33 269.229C1831.16 270.068 1832.5 270.068 1833.33 269.229Z" fill="#F1F2F2"/>
<path d="M1732.61 265.682C1734.56 267.625 1737.71 267.625 1739.65 265.682C1741.6 263.734 1741.6 260.589 1739.65 258.641C1737.71 256.693 1734.56 256.693 1732.61 258.641C1730.67 260.589 1730.67 263.734 1732.61 265.682Z" fill="#F1F2F2"/>
<path d="M1456.16 218.651C1458.1 216.708 1458.1 213.547 1456.16 211.615C1454.21 209.667 1451.07 209.667 1449.12 211.615C1447.17 213.547 1447.17 216.708 1449.12 218.651C1451.07 220.599 1454.21 220.589 1456.16 218.651Z" fill="#F1F2F2"/>
<path d="M1628.55 194.349C1626.6 196.292 1626.6 199.453 1628.55 201.401C1630.48 203.349 1633.64 203.349 1635.59 201.401C1637.53 199.453 1637.53 196.307 1635.59 194.359C1633.64 192.411 1630.48 192.411 1628.55 194.349Z" fill="#F1F2F2"/>
<path d="M1489.07 287.453C1489.9 286.625 1489.9 285.292 1489.07 284.453C1488.23 283.625 1486.9 283.625 1486.07 284.453C1485.24 285.281 1485.24 286.625 1486.07 287.453C1486.9 288.281 1488.24 288.281 1489.07 287.453Z" fill="#F1F2F2"/>
<path d="M1431.98 227.375C1432.81 226.547 1432.81 225.198 1431.98 224.375C1431.15 223.547 1429.81 223.547 1428.98 224.375C1428.16 225.198 1428.16 226.547 1428.98 227.375C1429.8 228.198 1431.15 228.214 1431.98 227.375Z" fill="#F1F2F2"/>
<path d="M1435.32 187.771C1436.15 186.948 1436.15 185.599 1435.32 184.771C1434.49 183.948 1433.15 183.948 1432.32 184.771C1431.49 185.599 1431.49 186.948 1432.32 187.771C1433.15 188.599 1434.49 188.599 1435.32 187.771Z" fill="#F1F2F2"/>
<path d="M1574.35 174.12C1576.29 172.172 1576.29 169.016 1574.35 167.068C1572.4 165.12 1569.24 165.12 1567.31 167.068C1565.36 169.016 1565.36 172.172 1567.31 174.12C1569.24 176.052 1572.4 176.052 1574.35 174.12Z" fill="#F1F2F2"/>
<path d="M1533.12 121.615C1533.95 120.786 1533.95 119.453 1533.12 118.615C1532.29 117.786 1530.96 117.786 1530.12 118.615C1529.31 119.453 1529.31 120.786 1530.12 121.615C1530.96 122.453 1532.29 122.453 1533.12 121.615Z" fill="#F1F2F2"/>
<path d="M1532 224.026C1532.83 223.198 1532.83 221.854 1532 221.026C1531.16 220.198 1529.83 220.187 1529 221.026C1528.16 221.854 1528.16 223.198 1529 224.026C1529.83 224.854 1531.16 224.854 1532 224.026Z" fill="#F1F2F2"/>
<path d="M1532.35 184.411C1533.16 185.24 1534.51 185.24 1535.33 184.411C1536.16 183.589 1536.16 182.24 1535.33 181.411C1534.51 180.589 1533.16 180.589 1532.35 181.411C1531.51 182.255 1531.51 183.589 1532.35 184.411Z" fill="#F1F2F2"/>
<path d="M1607.07 209.828C1606.24 210.651 1606.24 212.016 1607.07 212.828C1607.9 213.667 1609.24 213.651 1610.07 212.828C1610.9 212 1610.9 210.667 1610.07 209.828C1609.24 209 1607.9 209 1607.07 209.828Z" fill="#F1F2F2"/>
<path d="M1694.47 100.974C1693.41 100.469 1692.36 99.9583 1691.29 99.4791L1691.88 100.906C1692.63 101.651 1693.76 101.625 1694.59 101.026C1694.55 101.016 1694.51 100.984 1694.47 100.974Z" fill="#F1F2F2"/>
<path d="M1455 291.12C1457.17 288.948 1457.17 285.437 1455 283.281C1452.84 281.104 1449.32 281.104 1447.16 283.281C1444.98 285.437 1444.98 288.948 1447.16 291.12C1449.32 293.281 1452.84 293.281 1455 291.12Z" fill="#F1F2F2"/>
<path d="M1284.77 354.505C1287.41 351.854 1287.41 347.562 1284.77 344.922C1282.12 342.266 1277.83 342.266 1275.17 344.922C1272.53 347.562 1272.53 351.854 1275.17 354.495C1277.83 357.146 1282.12 357.146 1284.77 354.505Z" fill="#F1F2F2"/>
<path d="M1254.31 421.214C1256.45 419.078 1256.45 415.615 1254.31 413.479C1252.17 411.333 1248.71 411.333 1246.56 413.479C1244.43 415.615 1244.43 419.078 1246.56 421.214C1248.71 423.359 1252.17 423.359 1254.31 421.214Z" fill="#F1F2F2"/>
<path d="M1542.79 292.24C1544.2 290.828 1544.2 288.562 1542.79 287.146C1541.39 285.745 1539.1 285.745 1537.71 287.146C1536.29 288.547 1536.29 290.838 1537.71 292.24C1539.1 293.651 1541.39 293.651 1542.79 292.24Z" fill="#F1F2F2"/>
<path d="M918.135 749.625C916.198 747.682 913.042 747.682 911.094 749.625C909.161 751.573 909.161 754.734 911.094 756.667C913.042 758.615 916.198 758.615 918.135 756.667C920.094 754.719 920.094 751.573 918.135 749.625Z" fill="#F1F2F2"/>
<path d="M1231.1 411.161C1231.95 410.318 1231.95 408.984 1231.1 408.161C1230.28 407.333 1228.93 407.333 1228.1 408.161C1227.28 408.984 1227.28 410.318 1228.12 411.161C1228.93 411.984 1230.28 411.984 1231.1 411.161Z" fill="#F1F2F2"/>
<path d="M890.958 762.401C890.135 763.229 890.135 764.573 890.958 765.401C891.786 766.229 893.135 766.229 893.958 765.401C894.786 764.573 894.786 763.229 893.958 762.401C893.135 761.573 891.786 761.573 890.958 762.401Z" fill="#F1F2F2"/>
<path d="M995.104 659.641C995.933 658.813 995.933 657.469 995.104 656.641C994.282 655.812 992.933 655.812 992.104 656.641C991.282 657.469 991.282 658.813 992.104 659.641C992.933 660.469 994.282 660.469 995.104 659.641Z" fill="#F1F2F2"/>
<path d="M1306.71 425.625C1307.53 424.786 1307.53 423.453 1306.71 422.625C1305.86 421.802 1304.53 421.786 1303.71 422.615C1302.88 423.453 1302.88 424.786 1303.71 425.625C1304.53 426.453 1305.88 426.453 1306.71 425.625Z" fill="#F1F2F2"/>
<path d="M1345.56 361.651C1346.39 360.828 1346.39 359.495 1345.56 358.651C1344.72 357.828 1343.39 357.828 1342.56 358.651C1341.73 359.495 1341.72 360.828 1342.56 361.651C1343.39 362.479 1344.72 362.479 1345.56 361.651Z" fill="#F1F2F2"/>
<path d="M997.307 722.437C998.146 721.615 998.146 720.266 997.307 719.437C996.494 718.615 995.146 718.615 994.317 719.437C993.494 720.266 993.494 721.615 994.317 722.437C995.146 723.266 996.494 723.266 997.307 722.437Z" fill="#F1F2F2"/>
<path d="M1186.97 495.948C1188.92 494 1188.92 490.854 1186.97 488.906C1185.03 486.958 1181.88 486.958 1179.93 488.906C1177.98 490.854 1177.98 494 1179.93 495.948C1181.88 497.896 1185.03 497.896 1186.97 495.948Z" fill="#F1F2F2"/>
<path d="M1061.31 552.708L1061.77 553.854C1062.61 554.682 1063.96 554.682 1064.79 553.854C1065.61 553.026 1065.61 551.693 1064.79 550.854L1063.53 550.349C1062.92 550.984 1062.32 551.625 1061.72 552.266C1061.59 552.411 1061.44 552.562 1061.31 552.708Z" fill="#F1F2F2"/>
<path d="M1074.05 585.984C1074.88 585.161 1074.88 583.813 1074.04 582.984C1073.23 582.161 1071.88 582.161 1071.05 582.984C1070.23 583.828 1070.21 585.161 1071.05 585.984C1071.88 586.813 1073.23 586.813 1074.05 585.984Z" fill="#F1F2F2"/>
<path d="M1389.45 317.76C1390.28 316.932 1390.28 315.589 1389.45 314.76C1388.63 313.932 1387.28 313.932 1386.45 314.76C1385.62 315.589 1385.62 316.932 1386.45 317.76C1387.29 318.589 1388.63 318.589 1389.45 317.76Z" fill="#F1F2F2"/>
<path d="M916.984 829.135C919.146 826.974 919.146 823.469 916.984 821.292C914.813 819.135 911.307 819.135 909.135 821.292C906.974 823.469 906.974 826.974 909.146 829.135C911.307 831.307 914.813 831.307 916.984 829.135Z" fill="#F1F2F2"/>
<path d="M477.187 1370.92C478.01 1370.09 478.01 1368.76 477.187 1367.92C476.354 1367.09 475.015 1367.09 474.192 1367.92C473.359 1368.76 473.359 1370.09 474.192 1370.92C475.015 1371.74 476.354 1371.74 477.187 1370.92Z" fill="#F1F2F2"/>
<path d="M521.984 1311.8C525.021 1308.77 525.021 1303.85 521.984 1300.83C518.958 1297.79 514.036 1297.79 511.005 1300.83C507.974 1303.85 507.979 1308.77 511.005 1311.8C514.036 1314.84 518.953 1314.83 521.984 1311.8Z" fill="#F1F2F2"/>
<path d="M581.073 1237.8C583.021 1235.85 583.021 1232.69 581.073 1230.74C579.13 1228.81 575.974 1228.81 574.031 1230.74C572.083 1232.69 572.083 1235.85 574.031 1237.8C575.974 1239.74 579.13 1239.74 581.073 1237.8Z" fill="#F1F2F2"/>
<path d="M687.089 1120.69C687.922 1119.86 687.922 1118.52 687.089 1117.69C686.266 1116.86 684.922 1116.86 684.094 1117.69C683.26 1118.52 683.26 1119.85 684.094 1120.69C684.922 1121.52 686.266 1121.52 687.089 1120.69Z" fill="#F1F2F2"/>
<path d="M141.161 1746.53C143.109 1744.59 143.109 1741.44 141.161 1739.49C139.219 1737.55 136.063 1737.55 134.12 1739.49C133.193 1740.41 132.74 1741.63 132.693 1742.84C132.646 1744.17 133.099 1745.52 134.12 1746.53C135.047 1747.47 136.255 1747.92 137.474 1747.96C138.802 1748 140.146 1747.55 141.161 1746.53Z" fill="#F1F2F2"/>
<path d="M113.979 1752.27C113.157 1753.09 113.151 1754.43 113.979 1755.27C114.813 1756.09 116.151 1756.09 116.985 1755.27C117.808 1754.43 117.808 1753.09 116.985 1752.27C116.151 1751.43 114.813 1751.44 113.979 1752.27Z" fill="#F1F2F2"/>
<path d="M120.328 1715.65C121.151 1714.83 121.151 1713.48 120.323 1712.65C119.495 1711.83 118.151 1711.83 117.328 1712.65C116.495 1713.48 116.495 1714.83 117.328 1715.65C118.151 1716.48 119.495 1716.48 120.328 1715.65Z" fill="#F1F2F2"/>
<path d="M210.12 1626.91C212.068 1624.96 212.068 1621.81 210.12 1619.85C208.177 1617.92 205.021 1617.91 203.078 1619.85C201.13 1621.8 201.135 1624.96 203.078 1626.9C205.021 1628.85 208.177 1628.85 210.12 1626.91Z" fill="#F1F2F2"/>
<path d="M305.26 1590.64C306.094 1589.81 306.094 1588.48 305.26 1587.65C304.432 1586.81 303.089 1586.81 302.266 1587.65C301.438 1588.48 301.432 1589.81 302.266 1590.64C303.089 1591.47 304.432 1591.47 305.26 1590.64Z" fill="#F1F2F2"/>
<path d="M268.427 1640.02C269.25 1639.19 269.25 1637.84 268.422 1637.02C267.593 1636.17 266.25 1636.17 265.427 1637.02C264.593 1637.84 264.593 1639.19 265.427 1640C266.25 1640.84 267.593 1640.84 268.427 1640.02Z" fill="#F1F2F2"/>
<path d="M345.38 1663.17C344.557 1664 344.557 1665.33 345.38 1666.17C346.213 1667 347.552 1667 348.38 1666.17C349.208 1665.35 349.208 1664 348.38 1663.17C347.552 1662.33 346.213 1662.33 345.38 1663.17Z" fill="#F1F2F2"/>
<path d="M230.01 1697.36C231.958 1695.41 231.958 1692.26 230.01 1690.31C228.068 1688.36 224.917 1688.36 222.969 1690.31C221.026 1692.26 221.021 1695.41 222.969 1697.36C224.911 1699.29 228.068 1699.29 230.01 1697.36Z" fill="#F1F2F2"/>
<path d="M202.828 1703.08C202.005 1703.91 202.005 1705.26 202.828 1706.08C203.661 1706.91 205 1706.91 205.828 1706.08C206.656 1705.26 206.656 1703.91 205.828 1703.08C205 1702.26 203.661 1702.26 202.828 1703.08Z" fill="#F1F2F2"/>
<path d="M324.328 1544.92C325.151 1544.09 325.151 1542.74 324.328 1541.92C323.495 1541.09 322.157 1541.09 321.323 1541.92C320.5 1542.74 320.5 1544.09 321.323 1544.92C322.151 1545.74 323.495 1545.74 324.328 1544.92Z" fill="#F1F2F2"/>
<path d="M304.25 1750.96C306.188 1749.02 306.188 1745.85 304.25 1743.91C302.297 1741.96 299.146 1741.97 297.198 1743.92C295.256 1745.86 295.256 1749.02 297.198 1750.96C299.146 1752.91 302.297 1752.91 304.25 1750.96Z" fill="#F1F2F2"/>
<path d="M182.052 1808.86C182.88 1808.04 182.88 1806.69 182.052 1805.86C181.224 1805.04 179.885 1805.04 179.052 1805.86C178.229 1806.69 178.218 1808.04 179.052 1808.86C179.875 1809.69 181.224 1809.71 182.052 1808.86Z" fill="#F1F2F2"/>
<path d="M188.323 1838C187.49 1838.83 187.49 1840.17 188.323 1841C189.146 1841.83 190.495 1841.83 191.323 1841C192.151 1840.17 192.151 1838.83 191.318 1838C190.495 1837.17 189.146 1837.17 188.323 1838Z" fill="#F1F2F2"/>
<path d="M149.073 1658.71C149.901 1657.88 149.901 1656.55 149.068 1655.71C148.245 1654.88 146.896 1654.88 146.073 1655.72C145.24 1656.55 145.24 1657.88 146.073 1658.71C146.907 1659.53 148.245 1659.53 149.073 1658.71Z" fill="#F1F2F2"/>
<path d="M258.615 1563.27C259.437 1562.44 259.437 1561.09 258.615 1560.27C257.781 1559.44 256.432 1559.44 255.609 1560.27C254.781 1561.09 254.781 1562.43 255.609 1563.27C256.432 1564.09 257.781 1564.09 258.615 1563.27Z" fill="#F1F2F2"/>
<path d="M344.146 1485.83C343.312 1486.67 343.312 1488 344.146 1488.83C344.979 1489.67 346.312 1489.67 347.146 1488.84C347.974 1488 347.974 1486.67 347.14 1485.83C346.312 1485 344.974 1485 344.146 1485.83Z" fill="#F1F2F2"/>
<path d="M531.593 1235.15C533.536 1233.2 533.536 1230.04 531.593 1228.1C529.64 1226.16 526.489 1226.16 524.552 1228.1C522.599 1230.05 522.599 1233.2 524.552 1235.15C526.489 1237.09 529.651 1237.09 531.593 1235.15Z" fill="#F1F2F2"/>
<path d="M385.068 1321.2C385.896 1320.37 385.896 1319.04 385.068 1318.2C384.24 1317.37 382.896 1317.37 382.073 1318.2C381.24 1319.03 381.245 1320.37 382.073 1321.2C382.896 1322.03 384.24 1322.03 385.068 1321.2Z" fill="#F1F2F2"/>
<path d="M761.568 952.229C763.516 950.281 763.516 947.135 761.568 945.187C759.625 943.24 756.474 943.24 754.526 945.187C752.584 947.135 752.578 950.281 754.526 952.229C756.469 954.172 759.625 954.172 761.568 952.229Z" fill="#F1F2F2"/>
<path d="M737.391 960.958C738.214 960.12 738.214 958.787 737.391 957.958C736.558 957.12 735.219 957.135 734.386 957.958C733.563 958.787 733.563 960.12 734.386 960.958C735.219 961.787 736.558 961.787 737.391 960.958Z" fill="#F1F2F2"/>
<path d="M740.734 921.349C741.563 920.521 741.563 919.172 740.729 918.349C739.906 917.521 738.557 917.521 737.734 918.349C736.901 919.172 736.901 920.521 737.734 921.349C738.557 922.172 739.906 922.172 740.734 921.349Z" fill="#F1F2F2"/>
<path d="M805.172 882.974C806 882.146 805.995 880.802 805.172 879.974C804.339 879.146 803 879.146 802.172 879.974C801.344 880.802 801.344 882.146 802.172 882.974C803 883.802 804.344 883.802 805.172 882.974Z" fill="#F1F2F2"/>
<path d="M506.068 1246.57C506.901 1245.74 506.901 1244.41 506.068 1243.57C505.245 1242.74 503.901 1242.74 503.073 1243.57C502.245 1244.41 502.245 1245.74 503.073 1246.57C503.901 1247.41 505.245 1247.4 506.068 1246.57Z" fill="#F1F2F2"/>
<path d="M659.692 1089.96C660.526 1089.14 660.526 1087.79 659.692 1086.96C658.869 1086.14 657.526 1086.14 656.692 1086.96C655.869 1087.79 655.869 1089.12 656.692 1089.96C657.526 1090.79 658.869 1090.79 659.692 1089.96Z" fill="#F1F2F2"/>
<path d="M702.583 1014.43C703.416 1013.6 703.416 1012.26 702.583 1011.43C701.75 1010.6 700.416 1010.6 699.583 1011.43C698.755 1012.26 698.755 1013.6 699.583 1014.43C700.416 1015.26 701.755 1015.26 702.583 1014.43Z" fill="#F1F2F2"/>
<path d="M593.662 1098.52C595.615 1096.57 595.615 1093.41 593.662 1091.48C591.719 1089.53 588.568 1089.53 586.62 1091.48C584.677 1093.43 584.672 1096.57 586.62 1098.52C588.563 1100.47 591.719 1100.47 593.662 1098.52Z" fill="#F1F2F2"/>
<path d="M587.896 1131.65C587.062 1132.48 587.062 1133.83 587.896 1134.65C588.718 1135.48 590.062 1135.48 590.896 1134.65C591.718 1133.83 591.718 1132.48 590.885 1131.65C590.062 1130.83 588.718 1130.83 587.896 1131.65Z" fill="#F1F2F2"/>
<path d="M840.906 836.906C841.74 836.078 841.74 834.734 840.906 833.906C840.073 833.078 838.734 833.078 837.906 833.906C837.078 834.734 837.078 836.078 837.906 836.906C838.734 837.734 840.083 837.734 840.906 836.906Z" fill="#F1F2F2"/>
<path d="M691.875 1065.76C693.391 1064.24 693.391 1061.77 691.875 1060.27C690.365 1058.74 687.901 1058.74 686.386 1060.27C684.875 1061.77 684.875 1064.24 686.386 1065.74C687.901 1067.27 690.365 1067.27 691.875 1065.76Z" fill="#F1F2F2"/>
<path d="M346.375 1418.41C347.786 1417.02 347.776 1414.73 346.375 1413.32C344.963 1411.91 342.687 1411.91 341.276 1413.32C339.869 1414.72 339.869 1417.02 341.281 1418.41C342.687 1419.83 344.963 1419.83 346.375 1418.41Z" fill="#F1F2F2"/>
<path d="M438.802 1325.98C440.209 1324.59 440.209 1322.31 438.802 1320.9C437.391 1319.48 435.115 1319.48 433.703 1320.9C432.297 1322.29 432.297 1324.59 433.709 1325.98C435.115 1327.4 437.401 1327.4 438.802 1325.98Z" fill="#F1F2F2"/>
<path d="M121.672 1627.97C122.506 1627.15 122.506 1625.81 121.672 1624.97C120.849 1624.15 119.506 1624.15 118.677 1624.98C117.849 1625.81 117.849 1627.15 118.672 1627.97C119.506 1628.8 120.849 1628.8 121.672 1627.97Z" fill="#F1F2F2"/>
<path d="M153.854 1603.77C155.375 1602.27 155.369 1599.8 153.854 1598.28C152.343 1596.77 149.88 1596.77 148.364 1598.28C146.854 1599.8 146.854 1602.27 148.364 1603.77C149.88 1605.29 152.343 1605.29 153.854 1603.77Z" fill="#F1F2F2"/>
</svg>