<svg width="2427" height="1525" viewBox="0 0 2427 1525" fill="none" xmlns="http://www.w3.org/2000/svg">
<path d="M1609.9 1254.93C1639 1250.35 1668.25 1244.83 1695.86 1234.24C1712.8 1227.74 1735.24 1218.86 1735.52 1197.32C1735.59 1191.15 1733.19 1184.76 1728.8 1180.38C1726.64 1178.21 1718.93 1174.21 1712.08 1173.59C1723.74 1167.09 1730.47 1156.36 1727.21 1145.2C1724.04 1134.31 1711.2 1124.95 1699.85 1125.1C1709.19 1120.17 1720.21 1107.16 1716.47 1096.09C1712.76 1085.19 1699.96 1081.44 1688.44 1081.51C1664.12 1081.64 1630.25 1082.61 1610.47 1087.97C1620.03 1082.35 1625.19 1076.39 1637 1069.2C1648.97 1061.92 1663.47 1051.21 1665.41 1037.33C1666.6 1028.69 1662.33 1022.79 1655.1 1017.9C1641.67 1008.79 1623.6 1015.52 1608.93 1022.43C1581.03 1035.59 1554.97 1052.21 1528.44 1067.85C1505.12 1081.6 1480.17 1098.35 1452.59 1100.9C1451.81 1112.4 1454.39 1122.97 1455.32 1134.16C1456.35 1146.69 1455.2 1159.43 1456.39 1172.05C1458.6 1195.97 1464.09 1220.43 1477.4 1240.8C1478.57 1242.6 1479.83 1244.41 1481.57 1245.64C1483.56 1246.98 1485.98 1247.52 1488.33 1248C1508.67 1252.21 1533.36 1254.39 1554.02 1255.2C1573.93 1255.97 1590.28 1258.03 1609.9 1254.93Z" fill="#FCCCBD"/>
<path d="M1704.88 1171.73C1686.49 1174.23 1663.33 1177.37 1644.95 1179.86C1643.26 1180.09 1642.07 1181.65 1642.29 1183.35C1642.52 1185.04 1644.09 1186.24 1645.79 1186C1664.16 1183.51 1687.32 1180.36 1705.71 1177.86C1707.4 1177.64 1708.6 1176.08 1708.36 1174.39C1708.14 1172.69 1706.57 1171.51 1704.88 1171.73Z" fill="#FAB8AB"/>
<path d="M1694.74 1121.71C1681.07 1126.28 1655.03 1132.73 1638.8 1135.73C1637.12 1136.03 1636 1137.65 1636.32 1139.33C1636.62 1141.03 1638.24 1142.12 1639.92 1141.83C1656.53 1138.73 1682.52 1132.31 1696.69 1127.57C1698.32 1127.03 1699.2 1125.28 1698.65 1123.65C1698.1 1122.04 1696.36 1121.16 1694.74 1121.71Z" fill="#FAB8AB"/>
<path d="M905.021 708.24C903.635 709.12 902.239 710.016 900.849 710.906C877.989 725.625 857.234 735.922 850.036 764.615C845.442 782.932 848.021 802.229 851.187 820.839C863.692 894.469 885.125 966.563 914.661 1035.15C929.437 1069.45 946.234 1102.88 964.958 1135.17C980.547 1162.07 997.224 1197.53 1021.14 1217.9C1024.77 1220.93 1029.19 1224.32 1032.2 1226.29L1037.22 1229.59C1062.33 1244.44 1103.49 1246.09 1132.17 1249.97C1169.56 1255.04 1207.27 1257.49 1244.98 1258.26C1320.93 1259.79 1396.8 1254.4 1472.5 1248.92C1483.47 1248.14 1496.45 1246.02 1501.07 1236.03C1507.95 1221.1 1500.62 1197.52 1498.05 1181.96C1491.88 1144.53 1492.44 1106.28 1448.28 1100.71C1447.31 1100.57 1446.33 1100.47 1445.36 1100.35C1398.98 1094.68 1352.16 1092.38 1306.16 1083.85C1268.55 1076.9 1216.61 1068.86 1189.49 1039.98C1172.62 1022.02 1162.05 999.172 1151.76 976.771C1117.54 902.24 1083.32 827.693 1049.09 753.162C1039.99 733.333 1021.04 664.24 996.427 660.615C984.948 658.922 963.875 675.068 954.213 680.052C937.416 688.719 921 698.136 905.021 708.24Z" fill="#FCCCBD"/>
<path d="M915.114 523.682C945.958 552.625 982.167 601.547 1008.6 634.563C1032.94 664.948 1055.3 696.922 1075.45 730.229C1085.37 746.615 1093.95 763.719 1103.48 780.307C1111.26 793.854 1125.66 809.734 1123.07 826.625C1121.07 839.615 1060.34 862.135 1043.65 869.266C1000.34 887.734 955.573 900.307 909.739 910.599C906.833 911.255 903.578 911.854 901.062 910.255C898.958 908.906 898.005 906.375 897.172 904C885.052 869.438 873.443 834.625 860.802 800.255C850.151 771.333 828.37 747.682 820.401 716.974C815.568 698.359 824.896 678.813 829.745 661.229C834.51 643.88 836.422 625.932 839.864 608.198C844.354 585.042 846.354 561.385 845.875 537.802C845.661 526.547 816.463 453.281 806.948 446.359C846.974 467.318 888.375 498.589 915.114 523.682Z" fill="#61667B"/>
<path d="M752.734 430.786C752.672 448.161 739.281 462.802 726.052 475.12C706.578 493.453 691.26 535.104 666.344 546.479C627.625 564.068 592.099 570.198 551.906 555.88C511.729 541.589 461.604 482.667 445.047 445.839C442.984 441.172 441.292 435.318 444.922 431.573C446.344 430.104 448.156 428.469 450.255 428.411C549.359 427.161 561.963 387.255 563.495 348.385C564.005 335.427 563.271 322.615 564.068 311.359H626.323L625.703 312.281L625.531 312.667C622.917 319.547 624.453 349.854 631.323 375.854L631.776 377.547C635.797 392.188 641.646 405.255 649.37 411.839C668.719 428.292 726.724 427.385 752.734 430.786Z" fill="#FCCCBD"/>
<path d="M568.484 309.042C568.484 309.828 568.547 310.573 568.547 311.359H609.245L568.484 309.042Z" fill="#FEE7E0"/>
<path d="M609.245 311.359H568.547C568.771 320.974 569.177 330.615 569.625 340.198L569.573 341.563L570.245 342.469C571.609 344.505 573.198 346.495 574.958 348.385C582.344 356.359 593.016 362.505 603 366.708C612.141 370.573 621.677 373.411 631.323 375.854C626.542 357.771 624.349 337.615 624.328 324.693C624.323 319.042 624.734 314.76 625.531 312.667L625.703 312.281L609.245 311.359Z" fill="#FABCAC"/>
<path d="M995.406 1431.48C992.37 1440.04 987.609 1446.76 980.463 1450.68C969.635 1456.61 957.062 1458.33 944.812 1459.86C760.666 1483.02 567.198 1495.33 382.14 1479.69C339.411 1476.07 296.63 1470.45 255.172 1459.19C238.87 1454.76 218.354 1453.08 212.797 1436.93C211.328 1432.65 212.437 1425.52 212.333 1420.98C211.562 1385.63 211.932 1323.21 212.151 1287.84C212.833 1175.81 218.317 1063.33 216.062 951.349C215.677 929.547 215.317 907.641 215.317 885.735C215.317 837.599 216.969 789.469 223.39 741.735C228.213 705.802 235.703 670.214 246.156 635.469C256.536 600.745 268.344 561.802 288.151 531.214C307.104 502.094 332.364 473.198 360.687 453.162C396.427 427.896 441.87 424.438 483.791 417.839C487.291 417.292 491.515 417.042 493.656 419.854C494.536 421.026 494.864 422.505 495.203 423.922C499.87 443.281 511.995 464.641 524.12 480.334C573.698 544.547 682.12 540.531 695.76 453.026C699.911 426.349 694.89 417.094 713.39 418.641C740.547 420.932 774.599 428.667 799.041 441.136C901.661 493.469 927.041 648.412 939.812 750.12C945.875 798.375 951.953 846.683 958.031 894.974C958.031 947.651 964.479 1000.88 968.687 1053.31C974.567 1126.67 980.885 1199.98 987.692 1273.28C990.229 1300.63 1008.1 1395.61 995.406 1431.48Z" fill="#61667B"/>
<path d="M506.109 221.349C501.818 219.292 496.083 220.802 492.865 223.922C489.667 227.026 488.552 231.307 488.318 235.453C487.828 244.042 490.74 252.761 496.469 259.932C499.307 263.479 502.995 266.761 507.714 268.333L508.625 268.36L508.859 267.761C509.276 257.573 509.76 247.401 510.182 237.214L506.109 221.349Z" fill="#FCCCBD"/>
<path d="M741.297 214.625C741.208 290.948 710.682 356.318 625.89 356.318C539.218 356.318 504.505 298.068 502.224 221.771C499.942 145.505 551.578 80.1617 617.625 80.094C693.911 80.0002 741.401 109.318 741.297 214.625Z" fill="#FCCCBD"/>
<path d="M761.396 77.2918C755.906 78.4688 750.823 80.172 746.677 82.0938C755.875 72.4792 762.312 51.573 756.031 39.1615C749.864 26.9584 735.135 23.7345 722.661 26.1459C711.411 28.3178 701.323 34.2813 691.479 40.1459C695.896 34.3595 699.401 27.573 699.718 20.2917C700.031 13.0157 696.573 5.28133 690.041 2.06779C684.12 -0.838461 677.073 0.349038 670.656 1.86466C631.51 11.0938 594.729 30.0938 564.448 56.547C556.385 63.599 554.791 68.6928 544.291 68.7188C535.994 68.7449 528.161 69.9063 520.541 73.3595C505.703 80.0782 494.76 93.3178 488.26 107.984C480.781 124.854 478.198 139.734 478.271 158.12C478.338 173.906 484.286 200.625 494.38 221.932C498.833 220.026 504.547 221.682 507.948 224.281C511.427 226.948 515.38 231.984 517.099 235.958C515.448 232.146 521.427 218.573 522.646 214.495C527.875 196.922 537.552 177.787 550.239 164.401C549.64 165.042 583.38 179.828 586.286 181.052C633.385 201.136 694.052 201.469 741.151 182.386C760.015 174.745 782.432 163.386 795.797 147.573C807.422 133.802 822.14 108.386 811.047 90.6511C800.974 74.547 777.718 73.7709 761.396 77.2918Z" fill="#8A63D5"/>
<path d="M459.219 1043.55C398.625 1050.12 337.984 1056.31 277.307 1062.1C257.942 1063.96 238.39 1065.79 219.083 1063.36C212.547 1062.52 205.224 1060.63 202.13 1054.8C200.323 1051.43 200.37 1047.39 200.562 1043.55C202.75 1000.24 222.625 967.693 235.297 928.146C248.489 886.948 262.026 845.787 278.765 805.865C287.375 785.318 295.396 763.042 306.536 743.651L211.198 562.068C146.974 648.682 84.281 744.401 53.3904 852.693C37.8071 907.307 24.8852 962.682 14.6873 1018.55C5.85914 1066.96 -10.0106 1119.09 9.97373 1166.35L10.8904 1168.41L12.4894 1171.67C13.5831 1173.85 14.7498 1175.98 15.9789 1178.09C18.63 1182.68 20.5987 1185.36 22.9529 1188.57C24.1196 1190.12 25.3071 1191.65 26.5258 1193.15C27.7185 1194.59 28.5935 1195.53 29.6664 1196.73C31.6873 1198.96 33.9529 1201.32 35.9685 1203.24C99.9112 1264.45 200.495 1243.27 277.281 1230.31C356.01 1217.02 434.755 1203.72 513.495 1190.43C531.453 1187.4 555.677 1187.55 572.38 1180.49C590.052 1173.04 584.797 1165.6 581.083 1147.38C573.344 1109.17 567.479 1070.6 563.557 1031.84C528.797 1035.86 494.021 1039.76 459.219 1043.55Z" fill="#FCCCBD"/>
<path d="M240.911 518.042C208.62 546.266 177.896 592.229 152.672 624.469C128.682 655.136 106.687 687.359 86.9166 720.88C77.177 737.401 68.7916 754.589 59.4635 771.281C51.8281 784.922 37.6093 800.958 40.3906 817.828C42.5468 830.802 103.526 852.625 120.297 859.547C163.812 877.547 208.713 889.589 254.667 899.375C257.573 899.984 260.849 900.547 263.338 898.906C265.432 897.531 266.359 894.984 267.161 892.625C278.885 857.906 290.094 822.974 302.344 788.453C311.891 759.839 332.818 736.068 342.87 707.651C353.172 678.521 356.234 639.12 355.776 608.281C355.349 579.24 356.115 555.813 361.396 527.255C366.661 498.708 388.297 452.146 408.609 431.385C349.943 440.813 284.792 479.693 240.911 518.042Z" fill="#61667B"/>
<path d="M276.651 882.469C296.682 832.625 355.271 694.682 369.901 662.349C370.922 660.078 369.916 657.412 367.651 656.386C365.385 655.375 362.724 656.375 361.698 658.641C346.937 691.266 288.437 829.016 268.302 879.104C267.369 881.412 268.489 884.042 270.797 884.958C273.104 885.896 275.724 884.771 276.651 882.469Z" fill="#53576E"/>
<path d="M567.802 252.026L565.218 251.839C565.151 252.761 565.114 253.667 565.114 254.589C565.146 269.828 574.187 284.589 587.927 291.333C594.573 294.573 601.849 296.24 609.093 296.24C626.021 296.292 642.927 286.896 650.182 267.188C651.734 262.974 652.51 258.479 652.515 254C652.505 245.375 649.625 236.708 643.593 230.292C634.156 220.281 620.703 215.385 607.625 215.385C597.38 215.385 587.291 218.375 579.437 224.479C571.583 230.563 566.078 239.854 565.218 251.839L567.802 252.026L570.385 252.229C571.182 241.599 575.849 233.854 582.619 228.563C589.396 223.281 598.38 220.547 607.625 220.563C619.432 220.547 631.531 225.016 639.823 233.839C644.807 239.135 647.338 246.495 647.333 254C647.338 257.88 646.656 261.771 645.323 265.385C638.734 283.052 624.198 291.016 609.093 291.068C602.651 291.068 596.13 289.573 590.198 286.682C578.349 280.932 570.26 267.761 570.291 254.589C570.291 253.813 570.323 253.016 570.385 252.229L567.802 252.026Z" fill="white"/>
<path d="M681.844 252.042L679.292 251.865C679.224 252.761 679.188 253.682 679.188 254.599C679.219 269.787 688.026 284.547 701.479 291.292C707.578 294.333 714.052 295.735 720.411 295.735C741.526 295.719 761.62 280.375 764.479 258.188C764.656 256.761 764.745 255.318 764.745 253.88C764.734 245.412 761.75 236.667 755.943 230.349C746.719 220.318 733.557 215.427 720.755 215.427C710.729 215.427 700.849 218.427 693.172 224.531C685.495 230.615 680.13 239.896 679.292 251.865L681.844 252.042L684.396 252.229C685.177 241.573 689.75 233.813 696.359 228.531C702.974 223.255 711.74 220.531 720.755 220.531C732.271 220.531 744.073 224.985 752.177 233.802C756.974 239 759.641 246.615 759.625 253.88C759.625 255.12 759.557 256.349 759.401 257.547C757.005 276.865 739.115 290.625 720.411 290.615C714.797 290.615 709.13 289.386 703.766 286.719C692.198 280.985 684.276 267.802 684.307 254.599C684.307 253.813 684.339 253.016 684.396 252.229L681.844 252.042Z" fill="white"/>
<path d="M651.974 246.625L650.901 246.412L651.724 247.136L651.974 246.625L650.901 246.412L651.724 247.136L651.229 246.693L651.578 247.266L651.724 247.136L651.229 246.693L651.578 247.266L651.719 247.214L652.141 247.12C656.083 246.505 659.906 246.214 663.698 246.214C669.583 246.214 675.391 246.932 681.432 248.375C682.641 248.651 683.854 247.922 684.141 246.708C684.427 245.495 683.687 244.292 682.479 244C676.135 242.479 669.953 241.708 663.698 241.719C659.667 241.719 655.615 242.042 651.458 242.682C650.901 242.771 650.234 242.896 649.484 243.281C648.771 243.625 647.807 244.453 647.562 245.745C647.318 246.958 648.109 248.146 649.328 248.401C650.542 248.641 651.729 247.854 651.974 246.625Z" fill="white"/>
<path d="M571.125 237.922C547.167 226.682 520.818 216.787 494.005 215.719C492.76 215.667 491.708 216.641 491.661 217.88C491.614 219.12 492.583 220.172 493.828 220.214C519.64 221.229 545.484 230.839 569.208 242C570.328 242.521 571.672 242.042 572.203 240.922C572.729 239.802 572.25 238.453 571.125 237.922Z" fill="white"/>
<path d="M874.104 1306.1C894.75 1305.31 919.453 1303.12 939.781 1298.92C942.13 1298.43 944.546 1297.91 946.52 1296.53C948.281 1295.32 949.536 1293.51 950.713 1291.72C964.015 1271.35 969.51 1246.9 971.734 1222.96C972.895 1210.35 971.75 1197.6 972.802 1185.07C973.718 1173.88 976.296 1163.31 975.515 1151.8C947.937 1149.26 922.984 1132.49 899.666 1118.74C873.135 1103.1 847.093 1086.49 819.182 1073.35C804.5 1066.44 786.432 1059.71 773.005 1068.8C765.781 1073.69 761.5 1079.61 762.708 1088.26C764.63 1102.1 779.135 1112.84 791.099 1120.12C802.916 1127.31 808.083 1133.27 817.64 1138.9C797.864 1133.52 763.984 1132.53 739.677 1132.41C728.151 1132.35 715.349 1136.09 711.651 1147.02C707.89 1158.07 718.927 1171.07 728.26 1176.03C716.911 1175.86 704.067 1185.23 700.901 1196.12C697.645 1207.28 704.359 1218 716.031 1224.48C709.182 1225.12 701.468 1229.14 699.323 1231.28C694.921 1235.67 692.51 1242.07 692.599 1248.23C692.875 1269.77 715.307 1278.65 732.25 1285.15C759.859 1295.73 789.109 1301.26 818.208 1305.84C837.828 1308.93 854.177 1306.9 874.104 1306.1Z" fill="#FCCCBD"/>
<path d="M722.39 1228.77C740.77 1231.27 763.937 1234.41 782.323 1236.91C784.015 1237.14 785.578 1235.95 785.807 1234.26C786.031 1232.56 784.854 1231 783.156 1230.77C764.776 1228.28 741.604 1225.14 723.229 1222.64C721.531 1222.4 719.968 1223.6 719.739 1225.29C719.51 1226.97 720.698 1228.55 722.395 1228.77H722.39Z" fill="#FAB8AB"/>
<path d="M731.416 1178.5C745.583 1183.21 771.578 1189.64 788.192 1192.72C789.864 1193.03 791.484 1191.92 791.797 1190.24C792.109 1188.56 790.994 1186.95 789.312 1186.64C773.078 1183.64 747.041 1177.17 733.369 1172.61C731.744 1172.07 729.989 1172.96 729.453 1174.59C728.911 1176.2 729.791 1177.95 731.416 1178.5Z" fill="#FAB8AB"/>
<path d="M1523.09 759.162C1524.47 760.042 1525.86 760.922 1527.25 761.813C1550.12 776.531 1570.88 786.828 1578.08 815.521C1582.67 833.839 1580.09 853.146 1576.92 871.761C1564.41 945.386 1542.98 1017.48 1513.44 1086.07C1498.68 1120.36 1481.86 1153.77 1463.15 1186.08C1447.56 1212.97 1430.88 1248.44 1406.97 1268.8C1403.33 1271.84 1398.92 1275.23 1395.92 1277.2L1390.9 1280.49C1365.77 1295.35 1324.62 1296.98 1295.95 1300.88C1258.55 1305.95 1220.84 1308.4 1183.12 1309.16C1107.17 1310.68 1031.3 1305.32 955.604 1299.84C944.64 1299.03 931.651 1296.92 927.052 1286.93C920.161 1272.03 927.479 1248.44 930.052 1232.86C936.234 1195.44 935.661 1157.19 979.833 1151.61C980.797 1151.49 981.776 1151.38 982.755 1151.26C1029.12 1145.59 1075.95 1143.28 1121.94 1134.76C1159.56 1127.8 1211.49 1119.77 1238.61 1090.9C1255.48 1072.93 1266.05 1050.09 1276.35 1027.69C1310.57 953.146 1344.8 878.599 1379.02 804.068C1388.12 784.24 1407.07 715.136 1431.68 711.521C1443.16 709.828 1464.24 725.974 1473.91 730.958C1490.69 739.641 1507.1 749.052 1523.09 759.162Z" fill="#FCCCBD"/>
<path d="M1588.31 488.813C1606.53 445.36 1652.31 423.641 1682.73 390.813C1698.61 373.709 1708.73 350.146 1713.17 327.469C1715.6 315.052 1712.67 300.495 1712.17 287.985C1712 283.932 1712.35 280.255 1712.16 276.641L1711.5 277.24C1711.32 274.682 1711.16 272.375 1711 270.318C1710.65 269.307 1710.23 268.281 1709.65 267.229C1705.47 259.547 1697.84 254.052 1692.36 247.36C1691.45 246.266 1690.57 245.052 1690.37 243.651C1689.98 241.068 1692 238.771 1694 237.078C1703.48 229.24 1715.97 226.266 1728.09 224.198C1741.2 221.974 1754.43 220.563 1767.71 219.896C1794.62 201.651 1822.03 184.333 1822.03 184.333C1861.14 191.88 1896.96 214.495 1921.35 245.985C1945.72 277.479 1958.62 317.495 1958.19 357.307C1958.03 374.521 1955.44 391.641 1951.88 408.479C1934.83 489.214 1895.47 563.505 1851.43 633.307C1843.17 646.401 1837.96 656.615 1826.76 659.078V660.906L1826.27 660.828L1826.25 659.172C1822.83 659.854 1818.85 659.854 1814.05 658.974C1794.55 655.401 1775.04 652.307 1755.68 648.016C1717.02 639.412 1678.03 628.427 1642.76 610.094C1597.33 586.479 1566.44 540.906 1588.31 488.813Z" fill="#8A63D5"/>
<path d="M1695.74 457.786C1695.8 475.161 1709.2 489.802 1722.43 502.12C1741.9 520.453 1757.23 562.12 1782.15 573.469C1820.84 591.068 1856.39 597.198 1896.56 582.896C1936.76 568.589 1986.88 509.682 2003.45 472.839C2005.49 468.188 2007.19 462.333 2003.56 458.599C2002.14 457.12 2000.32 455.469 1998.23 455.411C1899.12 454.161 1886.52 414.266 1884.98 375.385C1884.48 362.437 1885.21 349.615 1884.43 338.375H1822.15L1822.77 339.292L1822.95 339.682C1825.56 346.531 1824.03 376.854 1817.16 402.854L1816.71 404.547C1812.69 419.198 1806.84 432.255 1799.12 438.839C1779.76 455.292 1721.74 454.375 1695.74 457.786Z" fill="#FCCCBD"/>
<path d="M1880 336.042L1839.24 338.375H1879.95C1879.95 337.589 1880 336.854 1880 336.042Z" fill="#1B213B"/>
<path d="M1879.95 338.375H1839.24L1822.77 339.292L1822.95 339.682C1823.73 341.771 1824.15 346.026 1824.15 351.693C1824.12 364.615 1821.93 384.771 1817.16 402.854C1826.81 400.411 1836.35 397.573 1845.48 393.708C1855.48 389.521 1866.15 383.385 1873.53 375.385C1875.28 373.505 1876.88 371.521 1878.24 369.469L1878.92 368.573L1878.85 367.214C1879.31 357.615 1879.72 347.974 1879.95 338.375Z" fill="#FABCAC"/>
<path d="M1453.07 1431.48C1456.1 1440.04 1460.88 1446.76 1468.02 1450.68C1478.85 1456.61 1491.41 1458.33 1503.68 1459.86C1687.81 1483.02 1881.28 1495.33 2066.35 1479.68C2109.08 1476.08 2151.86 1470.45 2193.29 1459.19C2209.61 1454.76 2230.14 1453.08 2235.68 1436.93C2237.16 1432.65 2236.05 1425.52 2236.15 1420.98C2236.92 1385.63 2236.56 1350.21 2236.33 1314.83C2235.65 1202.83 2230.16 1090.33 2232.41 978.349C2232.81 956.547 2233.15 934.641 2233.15 912.734C2233.15 864.599 2231.52 816.479 2225.09 768.745C2220.27 732.813 2212.77 697.229 2202.33 662.479C2191.95 627.745 2180.15 588.802 2160.33 558.214C2141.39 529.104 2116.1 500.214 2087.79 480.188C2057.95 459.052 2028.31 455.88 1993.05 448.547C1984.21 446.745 1969.07 443.318 1960.15 441.745C1950.32 439.922 1949.97 445.318 1944.59 453.094C1934.37 467.693 1921.98 480.906 1907.53 491.292C1894.29 500.787 1879.32 507.865 1863.43 511.547C1848.09 515.135 1835.04 512.802 1820.69 506.505C1793.16 494.412 1774.59 472.505 1765.17 444.531C1745.15 447.135 1724.93 448.667 1705.07 452.078C1685.95 455.255 1667.77 462.12 1649.44 468.135C1546.81 520.469 1521.45 675.427 1508.67 777.135C1502.6 825.375 1496.52 873.682 1490.45 921.984C1490.45 974.651 1484.02 1027.86 1479.8 1080.31C1473.92 1153.68 1467.6 1227 1460.8 1300.28C1458.25 1327.64 1440.39 1395.61 1453.07 1431.48Z" fill="#FF8666"/>
<path d="M1826.76 543.375C1780.81 531.761 1749.97 500.042 1727.55 448.922C1740.09 447.412 1752.67 446.146 1765.17 444.495C1774.59 472.495 1793.15 494.453 1820.65 506.521C1835.04 512.828 1848.1 515.12 1863.44 511.547C1879.29 507.865 1894.31 500.761 1907.52 491.281C1922.03 480.88 1934.39 467.708 1944.57 453.078C1950 445.307 1950.33 439.948 1960.16 441.734C1963.44 442.333 1967.57 443.162 1971.93 444.068C1957.33 502.906 1887.07 558.615 1826.76 543.375Z" fill="white"/>
<path d="M1960.16 1148.44C2010.5 1137.35 2063.95 1130.79 2112.04 1111.72C2131.96 1103.83 2151.25 1094.92 2171.49 1086.95C2186.93 1080.84 2214.39 1069.12 2207.93 1047.71C2186.52 976.667 2167.79 904.896 2136.29 836.974C2126.92 816.771 2118.09 794.802 2106.24 775.839L2194.8 590.839C2262.17 675.026 2328.37 768.359 2363.24 875.438C2380.83 929.427 2395.79 984.281 2408.05 1039.74C2418.68 1087.79 2436.47 1139.31 2418.23 1187.27L2417.4 1189.36L2415.91 1192.68C2414.9 1194.9 2413.81 1197.07 2412.67 1199.23C2410.19 1203.91 2408.32 1206.65 2406.08 1209.96C2404.98 1211.55 2403.84 1213.12 2402.68 1214.67C2401.55 1216.15 2400.71 1217.12 2399.67 1218.36C2397.74 1220.65 2395.56 1223.1 2393.64 1225.08C2390.32 1228.45 2386.23 1232.26 2383.43 1234.51L2378.73 1238.26C2355.16 1255.44 2314.33 1260.98 2286.16 1267.59C2249.41 1276.19 2212.12 1282.24 2174.65 1286.57C2099.19 1295.32 2023.15 1297.19 1947.27 1298.93C1936.28 1299.17 1923.15 1298.31 1917.61 1288.81C1909.33 1274.63 1914.37 1250.44 1915.45 1234.69C1918.05 1196.85 1913.85 1158.84 1957.28 1149.08C1958.24 1148.86 1959.2 1148.65 1960.16 1148.44Z" fill="#FCCCBD"/>
<path d="M2200.61 582.693C2229.62 613.479 2256.45 646.318 2280.83 680.896C2303.27 712.708 2323.61 745.984 2341.69 780.469C2350.6 797.427 2358.12 815.016 2366.61 832.161C2373.55 846.146 2386.96 862.896 2383.33 879.599C2380.55 892.427 2318.56 911.198 2301.47 917.281C2257.09 933.094 2211.65 942.896 2165.28 950.375C2162.35 950.839 2159.05 951.24 2156.64 949.495C2154.62 948.016 2153.81 945.427 2153.14 943.026C2143.15 907.771 2133.69 872.333 2123.17 837.229C2114.32 807.708 2094.02 782.771 2087.93 751.641C2084.26 732.771 2094.76 713.828 2100.67 696.573C2106.51 679.547 2109.49 661.745 2114.02 644.266C2119.91 621.411 2123.35 597.932 2124.32 574.375C2124.79 563.12 2129.45 515.026 2120.37 507.531C2148.65 530.88 2175.45 556.026 2200.61 582.693Z" fill="#FF8666"/>
<path d="M1513 563.896C1482.15 592.839 1445.95 641.771 1419.51 674.787C1395.17 705.162 1372.81 737.136 1352.67 770.438C1342.73 786.839 1334.16 803.932 1324.62 820.521C1316.85 834.068 1302.45 849.958 1305.04 866.854C1307.04 879.828 1367.77 902.349 1384.47 909.479C1427.77 927.958 1472.55 940.521 1518.36 950.813C1521.27 951.469 1524.53 952.068 1527.04 950.469C1529.15 949.12 1530.1 946.589 1530.93 944.214C1543.07 909.641 1554.67 874.854 1567.32 840.469C1577.96 811.547 1599.73 787.896 1607.71 757.188C1612.55 738.589 1603.21 719.026 1598.37 701.427C1593.6 684.094 1591.69 666.162 1588.26 648.412C1583.76 625.24 1581.77 601.599 1582.23 578.016C1582.45 566.761 1611.65 493.495 1621.16 486.589C1581.14 507.531 1539.73 538.802 1513 563.896Z" fill="#FF8666"/>
<path d="M1889.13 515.505C1898.31 491.547 1910.79 468.906 1919.4 444.745C1936.9 395.651 1937.8 342.411 1938.5 290.292C1938.77 270.385 1934.23 249.521 1932.23 229.708C1930.03 207.984 1931.2 196.906 1945.32 179.521C1947.76 176.505 1957.5 160.333 1961.07 160.052C1966.29 159.615 1969.41 176.984 1970.79 181.104C1985.92 226.865 2002.09 270.599 2021.08 314.922C2037.81 353.547 2054.31 392.292 2069.16 431.693C2072.6 440.812 2076.09 450.255 2075.52 459.984C2073.85 488.198 2056.29 509.651 2056.13 539.651C2055.69 624.479 2076.97 703.188 2113.98 779.016C2126.23 804.068 2139.07 828.854 2150.61 854.255C2158.81 872.281 2178.28 902.88 2172.45 923.401C2164.64 950.88 2125.72 952.813 2102.53 952.135C2058.56 950.828 1990.19 964.76 1950.85 940.948C1926.15 925.984 1920.67 893.161 1917.68 864.427C1917.49 890.349 1917.27 911.651 1926.9 946.135C1887.59 882.771 1876.64 798.318 1871.49 723.948C1866.73 654.974 1864.1 580.948 1889.13 515.505Z" fill="#8A63D5"/>
<path d="M1942.37 248.349C1946.65 246.292 1952.4 247.812 1955.61 250.922C1958.81 254.042 1959.93 258.318 1960.17 262.453C1960.65 271.042 1957.76 279.771 1952.02 286.932C1949.17 290.495 1945.49 293.76 1940.77 295.349L1939.85 295.359L1939.62 294.76C1939.2 284.573 1938.72 274.385 1938.31 264.214L1942.37 248.349Z" fill="#FCCCBD"/>
<path d="M1707.19 241.625C1707.27 317.948 1737.8 383.318 1822.6 383.318C1909.27 383.318 1943.98 325.068 1946.27 248.787C1948.55 172.505 1896.9 107.172 1830.85 107.094C1754.57 107.016 1707.08 136.318 1707.19 241.625Z" fill="#FCCCBD"/>
<path d="M1928.53 261.959C1930.02 263.427 1931.59 264.813 1933.39 266.026C1935.73 261.531 1937.71 257.188 1941.48 253.693C1950.1 245.745 1954.37 251.146 1958.52 238.865C1962.23 227.854 1964.02 215.615 1965.19 204.104C1967.61 180.24 1965.4 155.625 1955.6 133.547C1949.84 120.547 1941.28 108.375 1929.21 100.854C1917.16 93.3335 1901.24 91.1356 1888.59 97.5991C1866.26 72.771 1829.85 63.9846 1796.81 68.8283C1767.07 73.1877 1728.2 88.5627 1706.24 109.813C1683.71 131.599 1680.96 161.188 1680.41 190.547C1680.24 199 1688.61 254.266 1692.36 247.36C1695.76 241.078 1708.32 235.906 1714.96 233.573C1721.95 231.104 1729.33 229.906 1736.68 229.068C1751.02 227.401 1765.57 227.735 1779.8 225.104C1806.08 220.229 1831.71 211.854 1855.73 200.136C1857.41 199.307 1859.24 198.438 1861.1 198.693C1862.91 198.922 1864.39 200.146 1865.77 201.307C1888.65 220.615 1907.47 240.985 1928.53 261.959Z" fill="#8A63D5"/>
<path d="M1803.61 1167.85C1796.27 1186.17 1782.65 1202.28 1768.55 1217.65C1761.85 1224.93 1754.55 1232.43 1744.33 1235.95C1742.25 1203.08 1744.1 1170.17 1748.21 1137.45L1753.25 1130.32C1758.49 1124.53 1766.96 1120.84 1775.69 1120.55C1784.41 1120.24 1793.23 1123.32 1799.04 1128.72C1810.08 1138.97 1808.84 1154.8 1803.61 1167.85ZM1820.84 1107.83C1812.36 1099.71 1799.49 1095.05 1786.76 1095.51C1774.02 1095.97 1761.65 1101.51 1754 1110.21L1746.65 1120.96C1740.65 1170.2 1737.95 1219.74 1740.98 1269.17C1755.91 1263.9 1766.56 1252.61 1776.33 1241.63C1796.92 1218.51 1816.8 1194.28 1827.53 1166.71C1835.16 1147.09 1836.97 1123.27 1820.84 1107.83Z" fill="#8376B6"/>
<path d="M1760.51 1071.39L1527.64 1073.61C1533.23 1133.95 1542.65 1280.04 1545.85 1291.47C1548.45 1300.73 1555.61 1304.08 1564.68 1307.33C1587.72 1315.6 1612 1320.31 1636.45 1321.29C1653.68 1321.97 1670.95 1322.83 1688.19 1321.81C1704.63 1320.83 1732.1 1321.07 1741.16 1304.2C1744.33 1298.29 1745.31 1291.49 1746.15 1284.84C1750.86 1247.14 1752.76 1208.95 1755.19 1171.04C1757.35 1137.88 1760.49 1071.39 1760.51 1071.39Z" fill="#8A63D5"/>
<path d="M1539.39 1063.53C1533.43 1065.81 1526.64 1069.35 1527.75 1074.39C1528.97 1079.97 1537.77 1080.71 1542.12 1081.68C1548.88 1083.16 1555.69 1084.38 1562.56 1085.33C1581.23 1087.93 1600.02 1087.71 1618.77 1088.86C1637.9 1090.05 1657.05 1091.12 1676.23 1090.97C1689.65 1090.86 1703.08 1090.19 1716.4 1088.47C1728.08 1086.96 1741.56 1085.85 1752.2 1080.57C1757.79 1077.81 1765.2 1071.56 1756.72 1067.61C1749.91 1064.43 1741.51 1062.98 1734.23 1061.17C1718.72 1057.36 1702.92 1054.79 1687.02 1053.44C1662.77 1051.4 1638.29 1051.31 1614.02 1052.81C1600.05 1053.68 1586.08 1054.31 1572.19 1055.73C1563.39 1056.63 1554.64 1058.32 1546.27 1061.17C1544.75 1061.71 1542.16 1062.48 1539.39 1063.53Z" fill="#958CC3"/>
<path d="M1548.53 1064.96C1543.13 1066.39 1536.97 1068.62 1538.03 1071.93C1539.2 1075.59 1547.24 1076.17 1551.23 1076.84C1557.4 1077.88 1563.62 1078.74 1569.88 1079.45C1586.95 1081.35 1604.07 1081.39 1621.2 1082.33C1638.65 1083.32 1656.13 1084.23 1673.61 1084.31C1685.85 1084.39 1698.09 1084.08 1710.23 1083.09C1720.86 1082.23 1733.15 1081.65 1742.8 1078.31C1747.85 1076.56 1754.55 1072.55 1746.77 1069.88C1740.55 1067.72 1732.85 1066.68 1726.19 1065.44C1712.02 1062.79 1697.6 1060.93 1683.07 1059.9C1660.95 1058.31 1638.6 1058 1616.49 1058.73C1603.77 1059.15 1591.04 1059.41 1578.36 1060.2C1570.35 1060.69 1562.38 1061.71 1554.79 1063.49C1553.41 1063.81 1551.04 1064.31 1548.53 1064.96Z" fill="#8376B6"/>
<path d="M1650.07 1069.8C1617.14 1070.28 1583.28 1071.39 1550.67 1076.76L1551.23 1076.84C1557.4 1077.88 1563.62 1078.74 1569.88 1079.45C1586.95 1081.35 1604.07 1081.39 1621.2 1082.33C1638.65 1083.32 1656.14 1084.23 1673.61 1084.31C1685.85 1084.39 1698.09 1084.08 1710.23 1083.09C1720.86 1082.23 1733.15 1081.65 1742.8 1078.31C1743.93 1077.92 1745.14 1077.4 1746.26 1076.83C1714.43 1071.81 1682.32 1069.35 1650.07 1069.8Z" fill="#38405F"/>
<path d="M1674.77 816.719C1672.39 861.349 1665.64 910.375 1632.17 939.974C1622.39 948.615 1612.02 956.349 1604.28 965.229C1594.51 976.505 1588.98 989.625 1594.41 1008.81C1598.8 1024.31 1609.44 1037.44 1621.98 1047.53C1623.57 1048.81 1625.68 1050.4 1628.19 1052.12C1634.4 1051.9 1640.63 1051.77 1646.85 1051.77C1649.55 1051.77 1652.26 1051.8 1654.96 1051.84C1648.88 1034.88 1646.98 1015.76 1650.77 1000.77C1655.85 980.745 1667.75 971.708 1678.03 953.828C1689.52 933.828 1699.8 913.479 1698.71 890.078C1697.47 863.385 1686.83 840.172 1674.77 816.719Z" fill="#FAB8AB"/>
<path d="M1646.85 1051.77C1640.63 1051.77 1634.4 1051.9 1628.19 1052.12C1631.05 1054.1 1634.45 1056.27 1638.16 1058.35C1638.47 1058.35 1638.77 1058.35 1639.07 1058.35C1645.27 1058.35 1651.47 1058.44 1657.67 1058.63C1656.68 1056.41 1655.79 1054.15 1654.96 1051.84C1652.26 1051.8 1649.55 1051.77 1646.85 1051.77Z" fill="#C597BB"/>
<path d="M1639.07 1058.35C1638.77 1058.35 1638.47 1058.35 1638.16 1058.35C1645.48 1062.47 1654.04 1066.32 1662.41 1067.93C1660.68 1064.97 1659.09 1061.86 1657.67 1058.63C1651.47 1058.44 1645.27 1058.35 1639.07 1058.35Z" fill="#BA8AB5"/>
<path d="M1866.73 1312.93C1887.21 1310.17 1911.59 1305.64 1931.43 1299.52C1933.72 1298.81 1936.08 1298.07 1937.91 1296.51C1939.56 1295.12 1940.63 1293.21 1941.61 1291.32C1952.93 1269.77 1956.07 1244.91 1956.02 1220.86C1955.97 1208.2 1953.61 1195.63 1953.45 1183.05C1953.32 1171.83 1954.88 1161.05 1953 1149.68C1925.31 1149.76 1898.9 1135.47 1874.36 1123.98C1846.45 1110.96 1818.95 1096.88 1789.92 1086.44C1774.64 1080.96 1756.02 1075.97 1743.51 1086.32C1736.8 1091.86 1733.09 1098.17 1735.12 1106.65C1738.36 1120.28 1753.8 1129.57 1766.41 1135.67C1778.85 1141.71 1784.57 1147.16 1794.61 1151.84C1774.41 1148.39 1740.6 1150.63 1716.39 1152.8C1704.91 1153.84 1692.52 1158.8 1689.88 1170.02C1687.19 1181.38 1699.41 1193.28 1709.17 1197.31C1697.86 1198.23 1685.96 1208.76 1683.85 1219.92C1681.68 1231.35 1689.39 1241.39 1701.61 1246.72C1694.86 1248.02 1687.56 1252.73 1685.63 1255.07C1681.67 1259.86 1679.86 1266.45 1680.53 1272.59C1682.86 1294 1706.04 1300.71 1723.53 1305.56C1752.02 1313.47 1781.65 1316.2 1811.07 1317.98C1830.91 1319.2 1846.97 1315.6 1866.73 1312.93Z" fill="#FCCCBD"/>
<path d="M1708.35 1250.38C1726.9 1251.12 1750.25 1252.04 1768.79 1252.79C1770.49 1252.84 1771.93 1251.52 1772 1249.81C1772.07 1248.1 1770.74 1246.67 1769.04 1246.6C1750.49 1245.85 1727.13 1244.93 1708.6 1244.19C1706.88 1244.12 1705.44 1245.45 1705.37 1247.16C1705.31 1248.86 1706.64 1250.31 1708.35 1250.38Z" fill="#FAB8AB"/>
<path d="M1712.55 1199.47C1727.1 1202.81 1753.59 1206.74 1770.43 1208.23C1772.12 1208.39 1773.62 1207.12 1773.77 1205.43C1773.92 1203.72 1772.67 1202.21 1770.96 1202.07C1754.52 1200.61 1727.98 1196.68 1713.93 1193.43C1712.27 1193.04 1710.6 1194.08 1710.23 1195.74C1709.84 1197.43 1710.88 1199.08 1712.55 1199.47Z" fill="#FAB8AB"/>
<path d="M1158.61 1487.88C1158.52 1504.29 1159.2 1521.63 1141.44 1522.85C1115.28 1524.68 890.833 1524.15 815.859 1523.77C811.671 1523.77 807.974 1523.74 804.77 1523.69C802.02 1523.69 799.692 1523.69 797.765 1523.67C786.713 1523.6 773.442 1523.36 759.416 1523.07C756.114 1522.98 752.791 1522.92 749.453 1522.85C740.104 1522.61 730.63 1522.4 721.369 1522.17C718.864 1522.14 716.39 1522.05 713.927 1522C713.02 1521.98 712.099 1521.96 711.218 1521.93C709.026 1521.9 706.833 1521.85 704.692 1521.8C702.26 1521.74 699.854 1521.69 697.526 1521.65C694.375 1521.57 691.343 1521.53 688.375 1521.45C684.724 1521.39 681.26 1521.35 677.958 1521.29C669.494 1521.17 659.823 1522.05 651.541 1518.69C640.208 1514.09 639.145 1502.93 638.645 1490.71C637.901 1472.9 637.708 1407.49 644.13 1396.24C647.359 1390.59 653.083 1387.24 658.911 1385.92C674.229 1382.43 691.125 1384.26 707.125 1385.12C709.968 1385.27 712.807 1385.41 715.567 1385.45H716.296C727.838 1385.45 739.416 1385.63 750.989 1385.84C754.427 1385.92 757.869 1385.98 761.286 1386.07C776.25 1386.38 791.218 1386.73 806.161 1386.92C809.63 1386.97 813.067 1387.03 816.51 1387.07L926.015 1388.44C956.546 1388.83 987.083 1389.21 1017.59 1389.6C1038.96 1389.9 1060.33 1390.15 1081.67 1390.9C1094.88 1391.36 1108.11 1390.45 1121.32 1391.4C1130.64 1392.04 1146.43 1390.17 1152.59 1400.14C1158.19 1409.23 1157.86 1437 1157.71 1450.43C1157.56 1461.61 1158.69 1476.71 1158.61 1487.88Z" fill="#8A63D5"/>
<path d="M716.297 1385.45C715.906 1422.73 714.922 1486.28 713.927 1521.98C713.021 1521.96 712.099 1521.93 711.218 1521.91C709.026 1521.86 706.833 1521.83 704.692 1521.77C705.297 1486.79 706.312 1423.04 707.125 1385.12C709.968 1385.27 712.807 1385.41 715.567 1385.45H716.297Z" fill="#A586DF"/>
<path d="M761.286 1386.07C760.885 1422.14 759.865 1489.28 759.417 1523.07C756.115 1522.98 752.792 1522.92 749.453 1522.85C750.583 1487.72 750.479 1423.21 750.99 1385.84C754.427 1385.92 757.87 1385.98 761.286 1386.07Z" fill="#A586DF"/>
<path d="M1060.34 1524C1080.56 1523.92 1095.43 1523.83 1109.45 1523.64C1109.45 1480.29 1109.31 1435.2 1108.66 1390.97C1099.66 1390.91 1090.66 1391.21 1081.68 1390.9C1075.16 1390.68 1068.64 1390.49 1062.12 1390.35C1062.27 1437.85 1062.27 1483.31 1060.34 1524Z" fill="#A586DF"/>
<path d="M645.078 1178.33C647.052 1260.68 753.026 1244.39 822.916 1244.9C862.406 1245.16 1006.2 1244.16 1033.13 1243.76C1058.44 1243.4 1084.28 1244.21 1109.73 1242.84C1112.98 1210.41 1112.53 1175.37 1112.14 1148.45C1112.07 1143.91 1112.05 1139.79 1112.03 1136.05C1112.03 1134.37 1111.99 1132.79 1111.98 1131.26C1111.88 1124.08 1111.61 1118.55 1110.75 1114.2C1108.12 1113.83 1105.14 1113.53 1101.77 1113.24C1034.16 1107.69 830.281 1106.47 791.62 1108.39C741.401 1110.92 643.323 1107.53 645.078 1178.33Z" fill="white"/>
<path d="M777.875 1091.85C825.521 1091.83 1097.79 1094.6 1117 1097.31C1118.7 1097.53 1120.43 1097.8 1121.97 1098.56C1125.73 1100.41 1125.3 1106.64 1125.23 1110.29C1125.2 1111.47 1125.07 1112.77 1124.18 1113.55C1123.33 1114.29 1122.07 1114.28 1120.93 1114.24C1109.18 1113.72 1097.42 1113.27 1085.65 1112.79C1063.12 1111.84 1040.59 1110.91 1018.07 1110C1004.12 1109.44 990.161 1108.63 976.208 1108.41C951.594 1108.04 926.974 1107.77 902.349 1107.63C881.25 1107.53 860.146 1107.49 839.036 1107.61C825.536 1107.71 812.026 1107.74 798.542 1108.32L796.88 1108.39C744.859 1110.92 643.271 1107.53 645.068 1178.33C647.135 1260.68 756.896 1244.39 829.302 1244.9C842.208 1244.9 855.114 1244.93 868.031 1244.91C888.739 1244.85 909.453 1244.74 930.172 1244.65C951.364 1244.53 972.573 1244.4 993.765 1244.24C1009.13 1244.14 1024.49 1244.03 1039.86 1243.84C1055.44 1243.67 1101.77 1242.86 1109.73 1242.84C1113.47 1242.83 1118.57 1242.68 1122.26 1243.28C1125.88 1243.86 1125.12 1248.49 1125.28 1251.27C1125.52 1255.6 1125.33 1257.85 1121.42 1258.72C1114.19 1260.32 1081.61 1260.29 1073.89 1260.35C1058.47 1260.44 1043.06 1260.21 1027.65 1260.48C999.797 1260.98 971.875 1260.4 944.01 1260.29C903.167 1260.12 853.068 1259.29 812.213 1258.14C723.588 1255.63 626.265 1270.97 626.292 1178.98C626.312 1098.26 698.286 1091.9 777.875 1091.85Z" fill="#FFA68F"/>
<path d="M740.797 1127.51C740.797 1128.84 741.88 1129.91 743.198 1129.91H743.229C865.625 1128.64 989.614 1130.72 1112.03 1136.05C1112.03 1134.38 1111.99 1132.79 1111.98 1131.26C989.573 1125.9 865.588 1123.84 743.182 1125.08C741.859 1125.1 740.781 1126.2 740.797 1127.51Z" fill="#E2ECF1"/>
<path d="M1057.98 1145.14C981.74 1144.2 905.489 1143.74 829.245 1143.74C775.87 1143.74 722.495 1143.97 669.13 1144.43C667.802 1144.43 666.734 1145.52 666.745 1146.85C666.76 1148.19 667.844 1149.24 669.177 1149.23C722.526 1148.77 775.885 1148.56 829.245 1148.56C905.474 1148.56 981.703 1149.02 1057.93 1149.93C1059.25 1149.95 1060.34 1148.88 1060.36 1147.56C1060.37 1146.23 1059.31 1145.15 1057.98 1145.14Z" fill="#E2ECF1"/>
<path d="M1094.58 1181.05C997.922 1180.08 896.942 1178.67 796.031 1178.67C748.031 1178.67 700.052 1178.98 652.557 1179.83C651.229 1179.85 650.166 1180.95 650.192 1182.27C650.213 1183.6 651.312 1184.67 652.64 1184.64C700.099 1183.8 748.052 1183.49 796.031 1183.49C896.901 1183.49 997.864 1184.88 1094.54 1185.85C1095.86 1185.86 1096.95 1184.8 1096.96 1183.48C1096.98 1182.15 1095.91 1181.07 1094.58 1181.05Z" fill="#E2ECF1"/>
<path d="M979.052 1206.16C912.177 1206.16 839.364 1206.07 770.672 1206.07C736.323 1206.07 703.01 1206.08 671.984 1206.16C670.656 1206.16 669.578 1207.24 669.583 1208.57C669.588 1209.91 670.672 1210.97 671.994 1210.97C703.015 1210.9 736.323 1210.88 770.672 1210.88C839.359 1210.88 912.172 1210.97 979.052 1210.97C980.38 1210.97 981.458 1209.9 981.458 1208.57C981.458 1207.24 980.38 1206.16 979.052 1206.16Z" fill="#E2ECF1"/>
<path d="M1102.02 1229.23C1093.62 1229.26 1072.31 1229.27 1044.31 1229.27C972.64 1229.27 857.114 1229.16 801.818 1229C800.489 1228.98 799.406 1230.07 799.401 1231.4C799.396 1232.73 800.474 1233.81 801.802 1233.81C857.114 1233.97 972.635 1234.07 1044.31 1234.07C1072.31 1234.07 1093.62 1234.07 1102.03 1234.03C1103.36 1234.03 1104.43 1232.95 1104.43 1231.61C1104.42 1230.29 1103.34 1229.21 1102.02 1229.23Z" fill="#E2ECF1"/>
<path d="M807.713 1164.45C806.021 1188.74 806.286 1214.8 804.661 1237.16C798.271 1229.95 788.099 1222.74 781.703 1215.53C772.666 1221.17 764.14 1227.59 756.234 1234.72C755.63 1211.51 755.015 1188.31 754.411 1165.08C770.396 1165.8 807.713 1164.45 807.713 1164.45Z" fill="#FF724D"/>
<path d="M1129.19 1011.95C1127.21 1094.28 1021.24 1077.98 951.344 1078.49C911.859 1078.76 768.068 1077.77 741.135 1077.36C715.823 1077 689.984 1077.81 664.526 1076.45C661.281 1044.02 661.734 1008.98 662.125 982.068C662.198 977.505 662.213 973.401 662.239 969.667C662.239 967.974 662.265 966.401 662.292 964.854C662.385 957.682 662.651 952.161 663.515 947.812C666.14 947.427 669.125 947.135 672.5 946.854C740.104 941.292 943.979 940.068 982.646 942C1032.87 944.521 1130.94 941.12 1129.19 1011.95Z" fill="white"/>
<path d="M996.39 925.469C985.161 924.787 973.885 924.719 962.63 924.589C944.552 924.375 926.463 924.36 908.39 924.427C886.562 924.505 864.729 924.719 842.901 925.042C820.395 925.375 797.89 925.839 775.395 926.469C755.291 927.042 735.192 927.745 715.104 928.771C695.734 929.761 676.479 930.615 657.265 933.318C655.562 933.547 653.833 933.828 652.291 934.573C648.536 936.427 648.963 940.255 649.036 943.896C649.062 945.078 649.198 946.375 650.078 947.146C650.932 947.896 652.187 947.896 653.328 947.839C665.088 947.334 676.849 946.88 688.614 946.386C711.135 945.453 733.661 944.521 756.187 943.599C770.135 943.052 784.099 942.24 798.052 942.026C822.677 941.625 847.286 941.386 871.911 941.24C893.015 941.12 914.125 941.094 935.234 941.229C948.724 941.307 962.234 941.36 975.729 941.922L977.385 942C1029.4 944.521 1131 941.12 1129.19 1011.95C1127.13 1094.28 1017.37 1077.98 944.968 1078.49C932.057 1078.49 919.145 1078.55 906.239 1078.52C885.526 1078.47 864.807 1078.36 844.093 1078.26C822.895 1078.14 801.698 1078.02 780.505 1077.85C765.14 1077.73 749.776 1077.61 734.406 1077.45C718.823 1077.28 672.5 1076.48 664.526 1076.45C660.791 1076.44 655.698 1076.29 652.005 1076.88C648.385 1077.48 649.14 1082.09 648.979 1084.86C648.739 1089.21 648.937 1091.45 652.849 1092.33C660.073 1093.92 692.656 1093.9 700.38 1093.95C715.786 1094.05 731.203 1093.83 746.614 1094.08C774.468 1094.59 802.385 1094.02 830.26 1093.88C871.093 1093.73 911.932 1093.45 952.791 1092.93C1009.35 1092.21 1146.21 1109.72 1147.97 1012.6C1149.44 931.865 1048.33 928.589 996.39 925.469Z" fill="#FF724D"/>
<path d="M1033.47 961.12C1033.47 962.438 1032.39 963.505 1031.06 963.505H1031.04C908.63 962.255 784.64 964.318 662.239 969.667C662.239 967.974 662.265 966.401 662.291 964.854C784.692 959.505 908.682 957.438 1031.08 958.693C1032.41 958.719 1033.49 959.802 1033.47 961.12Z" fill="#E2ECF1"/>
<path d="M716.338 983.547C792.448 982.625 868.562 982.162 944.682 982.162C998.151 982.162 1051.62 982.386 1105.09 982.839C1106.42 982.854 1107.51 981.787 1107.52 980.453C1107.53 979.12 1106.46 978.052 1105.14 978.042C1051.65 977.573 998.166 977.349 944.682 977.349C868.547 977.349 792.411 977.813 716.281 978.735C714.948 978.745 713.88 979.839 713.901 981.162C713.916 982.495 715.01 983.563 716.338 983.547Z" fill="#E2ECF1"/>
<path d="M679.724 1019.47C776.297 1018.49 877.151 1017.09 977.916 1017.09C1025.99 1017.09 1074.05 1017.41 1121.62 1018.24C1122.95 1018.27 1124.04 1017.21 1124.07 1015.88C1124.09 1014.56 1123.03 1013.47 1121.7 1013.44C1074.1 1012.6 1026.02 1012.28 977.916 1012.28C877.109 1012.28 776.239 1013.68 679.682 1014.67C678.349 1014.67 677.281 1015.76 677.297 1017.09C677.307 1018.41 678.396 1019.48 679.724 1019.47Z" fill="#E2ECF1"/>
<path d="M795.203 1044.59C862.089 1044.59 934.906 1044.48 1003.59 1044.48C1037.93 1044.48 1071.24 1044.51 1102.27 1044.59C1103.6 1044.59 1104.68 1043.51 1104.68 1042.19C1104.69 1040.85 1103.61 1039.77 1102.29 1039.77C1071.25 1039.69 1037.94 1039.67 1003.59 1039.67C934.896 1039.67 862.089 1039.77 795.203 1039.77C793.875 1039.77 792.797 1040.84 792.797 1042.17C792.797 1043.51 793.875 1044.59 795.203 1044.59Z" fill="#E2ECF1"/>
<path d="M672.234 1067.64C680.568 1067.68 701.557 1067.69 729.187 1067.69C800.792 1067.69 916.943 1067.57 972.463 1067.41C973.792 1067.4 974.859 1066.32 974.859 1065C974.854 1063.67 973.776 1062.6 972.448 1062.6C916.937 1062.77 800.786 1062.88 729.187 1062.88C701.568 1062.88 680.568 1062.86 672.255 1062.84C670.922 1062.83 669.844 1063.91 669.838 1065.23C669.833 1066.56 670.906 1067.64 672.234 1067.64Z" fill="#E2ECF1"/>
<path d="M966.547 998.068C968.24 1022.35 967.979 1048.41 969.594 1070.77C976 1063.56 986.161 1056.35 992.568 1049.15C1001.59 1054.77 1010.13 1061.2 1018.03 1068.33C1018.64 1045.12 1019.24 1021.9 1019.86 998.693C1003.88 999.412 966.547 998.068 966.547 998.068Z" fill="#8A63D5"/>
<path d="M1152.92 1359.1C1152.81 1375.52 1153.49 1392.84 1135.73 1394.07C1109.59 1395.91 885.135 1395.37 810.156 1394.97C805.974 1394.97 802.265 1394.96 799.067 1394.92C796.317 1394.92 793.984 1394.92 792.067 1394.9C758.901 1394.64 705.437 1392.95 672.255 1392.49C663.791 1392.39 654.114 1393.27 645.838 1389.9C634.51 1385.31 633.453 1374.15 632.942 1361.92C632.198 1344.12 632.01 1278.71 638.427 1267.47C641.651 1261.8 647.385 1258.45 653.203 1257.14C668.703 1253.62 687.062 1256.65 702.823 1256.85C719.854 1257.08 736.911 1257.35 753.948 1257.56C769.448 1257.76 784.969 1257.95 800.458 1258.15C803.916 1258.19 807.37 1258.24 810.807 1258.29C847.312 1258.74 883.807 1259.2 920.312 1259.65C950.844 1260.04 981.38 1260.43 1011.89 1260.81C1033.25 1261.09 1054.62 1261.37 1075.97 1262.1C1089.17 1262.56 1102.42 1261.68 1115.62 1262.61C1124.93 1263.27 1140.71 1261.4 1146.88 1271.35C1152.49 1280.44 1152.17 1308.21 1152 1321.64C1151.85 1332.83 1152.98 1347.91 1152.92 1359.1Z" fill="#38405F"/>
<path d="M764.682 1257.69C761.109 1257.65 757.536 1257.6 753.958 1257.56C748.953 1257.49 743.927 1257.41 738.917 1257.36C738.813 1302.86 735.516 1348.33 735.203 1393.85C744.578 1394.07 753.885 1394.28 762.755 1394.45C763.969 1348.86 764.536 1303.28 764.682 1257.69Z" fill="#61667B"/>
<path d="M810.807 1258.29C810.734 1303.85 810.541 1349.43 810.156 1394.97C805.974 1394.97 802.265 1394.96 799.067 1394.92C799.333 1349.31 800.271 1303.73 800.458 1258.15C803.916 1258.19 807.369 1258.24 810.807 1258.29Z" fill="#61667B"/>
<path d="M1065.01 1345.39C1065.04 1347.17 1065.1 1349.08 1066.11 1350.55C1067.7 1352.84 1070.92 1353.17 1073.72 1353.27C1083.64 1353.55 1093.57 1353.49 1103.48 1353.1C1107.26 1352.96 1108.78 1351.79 1109.09 1347.84C1109.55 1333.4 1109.95 1319.33 1109.26 1304.88C1109.2 1303.84 1109.14 1302.74 1108.56 1301.91C1107.54 1300.4 1105.42 1300.21 1103.6 1300.2C1096.53 1300.1 1089.46 1300.03 1082.4 1299.95C1077.93 1299.9 1070.07 1298.59 1066.61 1302.32C1064.41 1304.68 1064.95 1308.32 1064.76 1311.26C1064.53 1314.85 1064.47 1318.45 1064.51 1322.09C1064.61 1329.86 1064.91 1337.61 1065.01 1345.39Z" fill="#61667B"/>
<path d="M675.677 1173.29C716.677 1176.53 756.88 1190.33 790.734 1213.71C804.406 1223.16 830.338 1228.96 832.349 1204.15C837.677 1207.28 844.62 1207.48 850.094 1204.61C855.573 1201.77 859.411 1195.98 859.901 1189.84C864.635 1192.96 871.083 1193.03 876.12 1190.41C901.515 1177.26 867.005 1144.17 857.515 1130.8C840.651 1106.98 820.338 1085.61 797.338 1067.67C747.265 1022.68 687.375 1021.14 624.791 1022.76C610.901 1023.1 570.911 1026.56 559.401 1033.93C548.937 1040.61 552.724 1055.28 551.13 1066.88C549.416 1079.35 545.521 1091.52 543.916 1104.09C542.187 1117.65 539.135 1134.56 542.791 1148.02C546.323 1161 545.182 1167.33 549.26 1184.88C570.14 1181.79 591.099 1181.04 611.739 1176.95C632.745 1172.77 654.328 1171.6 675.677 1173.29Z" fill="#FCCCBD"/>
<path d="M829.266 1200.28C807.313 1167.02 773.729 1141.69 735.719 1129.72C734.083 1129.2 732.349 1130.1 731.839 1131.73C731.323 1133.38 732.229 1135.1 733.859 1135.61C770.484 1147.16 802.958 1171.64 824.099 1203.68C825.036 1205.1 826.958 1205.51 828.385 1204.56C829.813 1203.63 830.208 1201.71 829.266 1200.28Z" fill="#FAB8AB"/>
<path d="M859.906 1184.85C852.083 1166.02 839.255 1149.85 825.156 1135.6C808.161 1118.41 788.896 1103.47 768.026 1091.24C766.552 1090.38 764.656 1090.86 763.792 1092.35C762.927 1093.83 763.422 1095.72 764.901 1096.59C785.302 1108.53 804.141 1123.15 820.76 1139.95C834.531 1153.88 846.818 1169.45 854.182 1187.23C854.838 1188.81 856.651 1189.56 858.229 1188.9C859.807 1188.24 860.562 1186.43 859.906 1184.85Z" fill="#FAB8AB"/>
</svg>