<svg width="1920" height="1080" viewBox="0 0 1920 1080" fill="none" xmlns="http://www.w3.org/2000/svg">
<g clip-path="url(#clip0_135_201)">
<path d="M1962.5 -29.5H-44.5V1109.5H1962.5V-29.5Z" fill="#1F103C"/>
<path d="M1962 -29V1109H-44V-29H1962ZM1963 -30H-45V1110H1963V-30Z" fill="#1F103C"/>
<path d="M83.7801 190.37C123.78 163.86 177.14 144.65 218.3 134.79C298.3 115.63 351.98 120.67 389.86 133.68C418.7 143.59 442.77 158.02 498.27 148.68C585.07 134.11 720.53 65.99 801.21 56.68C878.35 47.8 869.21 96.46 926.68 102.16C940.27 103.51 958.68 102.16 982.43 94.16C1028.32 78.69 1078.43 44.16 1123.82 29.49C1148.6 21.49 1166.23 21.27 1186.25 18.38C1227.7 12.38 1283.98 -6.62002 1337.45 -32.74C1375.62 -51.38 1418.85 -75.84 1449.45 -80.95C1468.96 -84.22 1475.56 -77.95 1482.29 -72.5C1494.95 -62.29 1514.5 -54.6 1553.21 -62.63C1633.51 -79.3 1756.33 -154.21 1830.04 -164.83C1810.78 -138.61 1743 -106 1690.16 -86C1599.54 -51.63 1513.54 -28.54 1445 -20.15C1413.09 -16.24 1378.45 -13.51 1335.82 6.66998C1287.55 29.51 1258.66 60.83 1213.91 87.12C1121.68 141.3 1029.8 139.76 930.49 187.32C889.95 206.73 852.94 232.32 812.21 249.48C760.21 271.42 722.15 271.63 696.86 266.64C671.57 261.65 649.22 253.29 604.36 263.64C561.97 273.46 509.52 297.74 460.36 319.77C362.8 363.54 262 404.13 176.08 425.47C89.3001 447 25.1101 447.23 -34.0799 445.3C-62.1699 444.38 -90.2199 442.92 -102.82 432.49C-117.82 420.1 -109.58 396.32 -101.28 373.2C-93.3899 351.2 -85.0999 328.63 -59.8999 301.09C-29.2399 267.58 24.0001 229.63 80.4001 193.92" fill="#341B64"/>
<path d="M1918.7 683.83C1881.39 713.97 1830.04 738.11 1789.99 751.83C1712.16 778.41 1658.22 778.43 1619.3 769.04C1589.65 761.88 1564.3 749.77 1509.95 764.25C1424.9 786.9 1296.43 867.43 1216.95 884.25C1140.95 900.33 1145.55 851.02 1087.77 850.75C1074.12 850.69 1055.91 853.75 1033.02 863.98C988.79 883.69 942.14 922.74 898.32 941.63C874.41 951.94 856.87 953.79 837.21 958.55C796.5 968.39 742.21 992.61 691.47 1023.63C655.22 1045.77 614.47 1074.17 584.52 1082.14C565.4 1087.22 558.24 1081.58 551.04 1076.81C537.48 1067.81 517.29 1062.01 479.51 1073.64C401.12 1097.77 285.88 1183.87 213.51 1201.36C230.18 1173.46 294.51 1134.65 345.33 1109.73C432.33 1067.04 515.78 1035.98 583.2 1021.2C614.6 1014.32 648.83 1008.34 689.38 984.25C735.29 956.98 761.12 923.09 803.21 892.72C890 830.09 981.59 823 1076 766.32C1114.53 743.19 1149 714.32 1187.93 693.32C1237.6 666.6 1275.51 662.81 1301.16 665.41C1326.81 668.01 1349.84 674.23 1393.53 659.68C1434.81 645.93 1484.76 616.83 1531.62 590.29C1624.62 537.59 1721.24 487.73 1804.76 458.42C1889.12 428.82 1953 422.6 2012.12 419C2040.12 417.28 2068.23 416.1 2081.76 425.31C2097.82 436.24 2091.89 460.68 2085.76 484.48C2079.97 507.11 2073.84 530.37 2051.33 560.15C2023.94 596.38 1974.53 639.15 1921.7 680.01" fill="#341B64"/>
<path d="M220 194.75L211.75 220.25L193 224.75L211 235.25L220 260V194.75Z" fill="#FEFAFF"/>
<path d="M220 194L228.25 219.5L247 224L229 234.5L220 259.25V194Z" fill="#FEFAFF"/>
<path d="M728 144.75L719.75 170.25L701 174.75L719 185.25L728 210V144.75Z" fill="#FEFAFF"/>
<path d="M728 144L736.25 169.5L755 174L737 184.5L728 209.25V144Z" fill="#FEFAFF"/>
<path d="M309 440.67L302.89 459.56L289 462.89L302.33 470.67L309 489V440.67Z" fill="#FEFAFF"/>
<path d="M309 440.11L315.11 459L329 462.33L315.67 470.11L309 488.44V440.11Z" fill="#FEFAFF"/>
<path d="M466 111.67L459.89 130.56L446 133.89L459.33 141.67L466 160V111.67Z" fill="#FEFAFF"/>
<path d="M466 111.11L472.11 130L486 133.33L472.67 141.11L466 159.44V111.11Z" fill="#FEFAFF"/>
<path d="M398 874.67L391.89 893.56L378 896.89L391.33 904.67L398 923V874.67Z" fill="#FEFAFF"/>
<path d="M398 874.11L404.11 893L418 896.33L404.67 904.11L398 922.44V874.11Z" fill="#FEFAFF"/>
<path d="M113 728L102 762L77 768L101 782L113 815V728Z" fill="#FEFAFF"/>
<path d="M113 727L124 761L149 767L125 781L113 814V727Z" fill="#FEFAFF"/>
<path d="M678 845.75L669.75 871.25L651 875.75L669 886.25L678 911V845.75Z" fill="#FEFAFF"/>
<path d="M678 845L686.25 870.5L705 875L687 885.5L678 910.25V845Z" fill="#FEFAFF"/>
<path d="M1368 170.75L1359.75 196.25L1341 200.75L1359 211.25L1368 236V170.75Z" fill="#FEFAFF"/>
<path d="M1368 170L1376.25 195.5L1395 200L1377 210.5L1368 235.25V170Z" fill="#FEFAFF"/>
<path d="M1753 519L1742 553L1717 559L1741 573L1753 606V519Z" fill="#FEFAFF"/>
<path d="M1753 518L1764 552L1789 558L1765 572L1753 605V518Z" fill="#FEFAFF"/>
<path d="M1876 120.75L1867.75 146.25L1849 150.75L1867 161.25L1876 186V120.75Z" fill="#FEFAFF"/>
<path d="M1876 120L1884.25 145.5L1903 150L1885 160.5L1876 185.25V120Z" fill="#FEFAFF"/>
<path d="M1614 87.67L1607.89 106.56L1594 109.89L1607.33 117.67L1614 136V87.67Z" fill="#FEFAFF"/>
<path d="M1614 87.11L1620.11 106L1634 109.33L1620.67 117.11L1614 135.44V87.11Z" fill="#FEFAFF"/>
<path d="M1546 850.67L1539.89 869.56L1526 872.89L1539.33 880.67L1546 899V850.67Z" fill="#FEFAFF"/>
<path d="M1546 850.11L1552.11 869L1566 872.33L1552.67 880.11L1546 898.44V850.11Z" fill="#FEFAFF"/>
<path d="M1826 821.75L1817.75 847.25L1799 851.75L1817 862.25L1826 887V821.75Z" fill="#FEFAFF"/>
<path d="M1826 821L1834.25 846.5L1853 851L1835 861.5L1826 886.25V821Z" fill="#FEFAFF"/>
<path d="M1568.01 277.697C1758.13 164.314 1880.53 19.1961 1841.39 -46.4338C1802.25 -112.064 1616.4 -73.3524 1426.27 40.0301C1236.15 153.413 1113.75 298.531 1152.89 364.16C1192.03 429.79 1377.88 391.079 1568.01 277.697Z" fill="#582DA9"/>
<path d="M1546.93 242.346C1680.5 162.69 1766.49 60.7409 1738.99 14.6349C1711.49 -31.471 1580.93 -4.27399 1447.36 75.3811C1313.79 155.036 1227.8 256.986 1255.29 303.092C1282.79 349.198 1413.36 322.001 1546.93 242.346Z" fill="#341B64"/>
<path d="M304.121 1146.75C494.246 1033.36 616.645 888.246 577.506 822.616C538.367 756.987 352.512 795.698 162.387 909.08C-27.7386 1022.46 -150.137 1167.58 -110.999 1233.21C-71.86 1298.84 113.995 1260.13 304.121 1146.75Z" fill="#582DA9"/>
<path d="M283.039 1111.4C416.609 1031.74 502.599 929.791 475.103 883.685C447.608 837.579 317.039 864.776 183.469 944.431C49.8993 1024.09 -36.0908 1126.04 -8.59526 1172.14C18.9003 1218.25 149.47 1191.05 283.039 1111.4Z" fill="#341B64"/>
<path d="M475 421C540.17 421 593 368.17 593 303C593 237.83 540.17 185 475 185C409.83 185 357 237.83 357 303C357 368.17 409.83 421 475 421Z" fill="#85A8E8"/>
<path d="M456 421C521.17 421 574 368.17 574 303C574 237.83 521.17 185 456 185C390.83 185 338 237.83 338 303C338 368.17 390.83 421 456 421Z" fill="#A0BAF2"/>
<path d="M436.5 241C450.031 241 461 234.284 461 226C461 217.716 450.031 211 436.5 211C422.969 211 412 217.716 412 226C412 234.284 422.969 241 436.5 241Z" fill="#85A8E8"/>
<path d="M391 284C399.284 284 406 277.284 406 269C406 260.716 399.284 254 391 254C382.716 254 376 260.716 376 269C376 277.284 382.716 284 391 284Z" fill="#85A8E8"/>
<path d="M448 293C454.627 293 460 287.627 460 281C460 274.373 454.627 269 448 269C441.373 269 436 274.373 436 281C436 287.627 441.373 293 448 293Z" fill="#85A8E8"/>
</g>
<defs>
<clipPath id="clip0_135_201">
<rect width="1920" height="1080" fill="white"/>
</clipPath>
</defs>
</svg>
