<svg width="43" height="43" viewBox="0 0 450 342" fill="none" xmlns="http://www.w3.org/2000/svg">
    <path d="M221.583 86.2459C182.511 51.1863 119.059 11.8597 26.1209 0.87914C22.4179 0.441632 19.5612 4.13043 20.5645 7.7217C21.649 11.6041 22.4505 15.4615 23.2559 19.6166C23.6969 21.8917 25.6621 23.569 27.976 23.6964C113.558 28.4071 175.416 63.0122 216.897 91.6133C221.764 94.9695 225.984 90.1945 221.583 86.2459Z" fill="#FF8666"/>
    <path d="M228.917 86.2459C267.989 51.1863 331.441 11.8597 424.379 0.87914C428.082 0.441632 430.939 4.13043 429.936 7.7217C428.851 11.6041 428.049 15.4615 427.244 19.6166C426.803 21.8917 424.838 23.569 422.524 23.6964C336.942 28.4071 275.084 63.0122 233.603 91.6133C228.736 94.9695 224.516 90.1945 228.917 86.2459Z" fill="#FF724D"/>
    <path d="M229.298 112.009C301.187 62.3305 349.397 46.6121 436.163 43.4019C442.439 43.1697 445.577 43.0536 447.149 45.0745C448.721 47.0954 447.826 50.1471 446.035 56.2503C424.893 128.315 418.647 174.153 412.592 249.529C412.304 253.122 412.159 254.918 411.076 256.161C409.994 257.403 408.221 257.794 404.676 258.576C337.076 273.483 298.02 292.552 240.788 331.181C233.801 335.897 230.307 338.256 227.653 336.845C225 335.435 225 331.251 225 322.884V120.204C225 117.648 225 116.37 225.572 115.28C226.144 114.189 227.195 113.462 229.298 112.009Z" fill="#8A63D5" stroke="black" stroke-opacity="0.35"/>
    <path d="M222.844 113.495C147.865 61.3219 98.9687 45.8362 6.92775 43.1747C3.52543 43.0763 1.02453 46.3621 2.00043 49.623C25.0874 126.766 31.3697 173.326 37.7038 253.24C37.8792 255.453 39.5183 257.317 41.6885 257.784C114.654 273.48 154.415 293.571 217.117 336.56C220.446 338.843 225 336.478 225 332.442V117.602C225 115.971 224.183 114.426 222.844 113.495Z" fill="#A586DF" stroke="black" stroke-opacity="0.35"/>
</svg>