<svg width="2212" height="1704" viewBox="0 0 2212 1704" fill="none" xmlns="http://www.w3.org/2000/svg">
<path d="M2076.79 240.604C2069.19 217.849 2055.52 197.526 2030.97 184.875C1999.63 168.729 1959.39 168.021 1921.62 167.875C1766.15 167.26 870.332 167.458 714.874 167.937C554.431 168.432 397.066 156.833 236.644 166.687C203.832 168.698 169.243 171.765 142.957 186.927C106.821 207.765 96.186 245.396 91.6391 279.859C83.035 344.995 91.0193 410.422 90.7485 475.713C90.4881 541.073 89.7225 606.432 90.061 671.791C91.2902 901.26 92.9308 781.791 95.1235 1011.24C95.837 1085.4 95.9516 1159.54 96.6756 1233.69C97.3162 1301.89 90.0037 1375.58 102.597 1442.86C106.821 1465.42 118.347 1487.89 140.03 1503.48C157.894 1516.34 181.285 1523.67 204.764 1529.07C293.754 1549.53 400.728 1544.42 492.446 1547.06C630.545 1551.03 768.749 1552.9 906.926 1553.73C1022.09 1554.42 1878.83 1556 1992.91 1541.83C2109.12 1527.41 2087.4 1406.76 2090.02 1339.43C2093.54 1248.22 2089.78 1119.33 2089.87 1028.06C2090.02 882.245 2089.63 706.062 2089.18 589.302C2088.83 503.432 2085.05 418.448 2085.87 332.687C2086.14 305.885 2086.93 271.062 2076.79 240.604Z" fill="#38405F"/>
<path d="M2011.78 306.125C2004.71 285.875 1991.91 267.781 1968.98 256.526C1939.7 242.151 1902.11 241.526 1866.82 241.396C1721.62 240.849 884.78 241.021 739.556 241.448C589.665 241.885 442.66 231.567 292.801 240.328C262.144 242.114 229.853 244.859 205.285 258.354C171.53 276.901 161.597 310.38 157.342 341.062C149.311 399.031 156.775 457.26 156.519 515.364C156.275 573.541 155.556 631.713 155.884 689.875C157.019 894.114 158.556 787.765 160.608 991.995C161.28 1057.98 161.384 1123.97 162.051 1189.95C162.644 1250.65 155.837 1316.23 167.597 1376.11C171.53 1396.21 182.306 1416.19 202.551 1430.09C219.248 1441.53 241.108 1448.05 263.035 1452.85C346.155 1471.05 446.082 1466.5 531.764 1468.86C660.764 1472.4 789.863 1474.06 918.962 1474.79C1026.52 1475.41 1826.87 1476.82 1933.42 1464.22C2042 1451.36 2021.71 1343.99 2024.12 1284.09C2027.42 1202.89 2023.91 1088.18 2024 1006.95C2024.15 877.182 2023.79 720.364 2023.36 616.458C2023.03 540.047 2019.5 464.396 2020.27 388.073C2020.51 364.234 2021.24 333.218 2011.78 306.125Z" fill="#AEB6DD"/>
<path d="M2127.71 1605.02C2109.98 1602.52 2091.64 1601.3 2074.48 1601.54C2049.75 1601.87 2026.14 1606.58 2000.75 1606.82C1932.93 1607.48 1865.07 1607.94 1797.22 1607.86C1693.99 1607.77 1590.78 1607.66 1487.55 1607.57C1359.43 1607.45 1231.31 1607.34 1103.18 1607.24C974.097 1607.18 844.993 1607.11 715.899 1607.1C609.753 1607.09 503.602 1607.1 397.456 1607.23C338.18 1607.31 278.878 1607.21 219.623 1607.81C186.654 1608.15 152.686 1609.45 119.956 1607.69C106.472 1606.95 92.9303 1606.65 79.4095 1606.77C65.7845 1606.89 51.4876 1607.58 40.0762 1612.46C48.748 1635.3 62.071 1657.36 79.6022 1677.89C97.5553 1698.9 111.753 1702.57 148.305 1703.02C252.847 1704.35 388.675 1701.94 483.144 1702.4C625.399 1703.07 1911.24 1703.71 2028.78 1701.5C2051.64 1701.07 2078.35 1702.19 2100.58 1699.43C2146.03 1693.78 2162.33 1646.95 2173.71 1621.69C2174.35 1620.26 2175 1618.73 2174.35 1617.3C2173.42 1615.1 2169.91 1613.89 2166.7 1612.99C2154.59 1609.64 2141.34 1606.95 2127.71 1605.02Z" fill="#38405F"/>
<path d="M2211.4 1618.02C2210.05 1631.57 2205.58 1642.5 2193.93 1642.75C2179.5 1643.03 2165.06 1643.41 2150.63 1643.41C2134.19 1642.54 2117.81 1641.6 2101.33 1641.91C1980.28 1644.17 579.483 1643.74 425.248 1642.97C322.785 1642.43 175.571 1645.26 62.1547 1643.69C16.6547 1643.09 4.6599 1638.73 1.14428 1610.87C-0.897388 1594.65 -0.0848877 1572 2.61303 1557.77C4.9047 1545.62 14.3526 1538.93 40.6807 1536.1C77.4359 1532.17 101.853 1533.94 139.452 1533.54C203.712 1532.89 268.035 1532.95 332.301 1532.89C447.431 1532.75 562.556 1532.69 677.691 1532.75C749.811 1532.75 821.936 1532.75 894.082 1532.82C961.889 1532.82 1029.76 1532.89 1097.63 1532.89C1159.98 1532.95 1222.33 1533.02 1284.62 1533.09C1361.22 1533.15 1437.81 1533.22 1514.4 1533.29C1626.39 1533.35 1738.3 1533.48 1850.19 1533.6C1934.75 1533.67 2018.5 1533.02 2102.83 1532.03C2129.71 1531.73 2156.47 1531.81 2183.34 1532.36C2188.72 1532.47 2194.4 1532.67 2198.91 1535.64C2209.38 1542.54 2209.71 1559.87 2209.83 1570.97C2209.93 1580.07 2213.1 1601.07 2211.4 1618.02Z" fill="#61667B"/>
<path d="M1284.62 1533.09C1278.18 1552.83 1268.48 1572.46 1249.36 1578.9C1241.75 1581.4 1233.55 1581.46 1225.55 1581.4C1138.05 1581.26 1050.51 1581.12 962.988 1580.99C950.926 1580.99 938.457 1580.86 927.499 1575.81C910.634 1567.99 901.29 1550.41 894.082 1532.82C961.889 1532.82 1029.76 1532.89 1097.63 1532.89C1159.98 1532.95 1222.33 1533.02 1284.62 1533.09Z" fill="#38405F"/>
<path d="M106.207 1572.17C96.8317 1573.71 88.2952 1580.89 87.6754 1594.12C87.4359 1599.27 88.3317 1604.66 91.4046 1608.79C93.889 1612.12 97.6182 1614.4 101.597 1615.54C114.816 1619.3 130.139 1608.81 131.394 1595.12C132.967 1578.1 118.832 1570.06 106.207 1572.17Z" fill="#38405F"/>
<path d="M195.493 1572.17C186.123 1573.71 177.592 1580.89 176.967 1594.12C176.712 1599.27 177.634 1604.66 180.712 1608.79C183.191 1612.12 186.905 1614.4 190.894 1615.54C204.113 1619.3 219.425 1608.81 220.691 1595.12C222.264 1578.1 208.129 1570.06 195.493 1572.17Z" fill="#38405F"/>
<path d="M1756.09 1385.98C1755.84 1426.34 1757.5 1468.95 1713.82 1471.97C1649.5 1476.47 1097.45 1475.17 913.041 1474.22C902.728 1474.22 893.619 1474.15 885.754 1474.03C878.999 1474.03 873.27 1474.03 868.535 1473.98C841.353 1473.79 808.692 1473.21 774.186 1472.5C766.061 1472.33 757.91 1472.14 749.686 1471.97C726.723 1471.38 703.4 1470.85 680.619 1470.31C674.457 1470.19 668.369 1470.02 662.332 1469.9C660.077 1469.83 657.832 1469.78 655.645 1469.71C650.244 1469.6 644.858 1469.48 639.613 1469.36C633.634 1469.24 627.712 1469.12 621.973 1469C614.223 1468.83 606.77 1468.71 599.478 1468.54C590.488 1468.36 581.957 1468.23 573.858 1468.11C553.009 1467.82 529.218 1470.02 508.879 1461.73C481.004 1450.42 478.4 1422.97 477.145 1392.9C475.317 1349.1 474.843 1188.24 490.65 1160.55C498.567 1146.65 512.666 1138.42 526.978 1135.15C564.681 1126.58 606.223 1131.09 645.593 1133.21C652.567 1133.57 659.541 1133.91 666.348 1134.03H668.129C696.535 1134.03 725.004 1134.45 753.468 1134.98C761.931 1135.15 770.405 1135.34 778.811 1135.52C815.613 1136.29 852.421 1137.17 889.186 1137.65C897.697 1137.77 906.166 1137.89 914.624 1138L1183.95 1141.36C1259.06 1142.33 1334.18 1143.27 1409.21 1144.22C1461.76 1144.93 1514.34 1145.58 1566.81 1147.41C1599.3 1148.54 1631.86 1146.34 1664.34 1148.65C1687.26 1150.24 1726.1 1145.64 1741.22 1170.14C1755 1192.5 1754.26 1260.81 1753.83 1293.83C1753.47 1321.35 1756.24 1358.46 1756.09 1385.98Z" fill="#8A63D5"/>
<path d="M668.129 1134.03C667.191 1225.71 664.764 1382 662.332 1469.83C660.077 1469.78 657.832 1469.71 655.645 1469.66C650.243 1469.54 644.858 1469.42 639.613 1469.3C641.098 1383.26 643.577 1226.47 645.592 1133.21C652.566 1133.57 659.54 1133.91 666.348 1134.03H668.129Z" fill="#A586DF"/>
<path d="M778.811 1135.52C777.811 1224.23 775.3 1389.41 774.186 1472.5C766.061 1472.33 757.91 1472.14 749.686 1471.97C752.467 1385.55 752.227 1226.9 753.467 1134.98C761.93 1135.15 770.404 1135.34 778.811 1135.52Z" fill="#A586DF"/>
<path d="M1514.39 1474.79C1564.09 1474.58 1600.67 1474.35 1635.17 1473.9C1635.17 1367.31 1634.81 1256.38 1633.18 1147.59C1611.07 1147.45 1588.95 1148.19 1566.84 1147.42C1550.81 1146.86 1534.78 1146.45 1518.72 1146.06C1519.11 1262.9 1519.11 1374.7 1514.39 1474.79Z" fill="#A586DF"/>
<path d="M492.983 624.593C497.832 827.114 758.478 787.047 930.389 788.286C1027.51 788.937 1381.18 786.515 1447.42 785.515C1509.66 784.62 1573.24 786.635 1635.86 783.26C1643.84 703.484 1642.72 617.312 1641.76 551.088C1641.59 539.901 1641.54 529.781 1641.47 520.604C1641.47 516.458 1641.42 512.552 1641.35 508.781C1641.12 491.14 1640.46 477.526 1638.34 466.875C1631.88 465.927 1624.55 465.208 1616.26 464.5C1449.97 450.833 948.499 447.817 853.395 452.552C729.889 458.765 488.655 450.422 492.983 624.593Z" fill="white"/>
<path d="M819.597 411.885C936.785 411.817 1606.45 418.619 1653.71 425.27C1657.9 425.875 1662.15 426.526 1665.94 428.38C1675.19 432.937 1674.15 448.27 1673.95 457.234C1673.91 460.114 1673.57 463.338 1671.38 465.244C1669.28 467.088 1666.19 467.062 1663.4 466.937C1634.47 465.671 1605.54 464.578 1576.62 463.354C1521.19 461.046 1465.79 458.755 1410.39 456.515C1376.09 455.125 1341.75 453.151 1307.42 452.619C1246.88 451.671 1186.33 451.046 1125.76 450.698C1073.84 450.421 1021.94 450.328 970.029 450.661C936.837 450.875 903.581 450.979 870.425 452.364C869.061 452.421 867.706 452.484 866.342 452.552C738.415 458.765 488.519 450.421 492.946 624.593C498.029 827.114 768.003 787.046 946.081 788.286C977.821 788.286 1009.57 788.406 1041.34 788.338C1092.3 788.208 1143.24 787.979 1194.18 787.698C1246.33 787.421 1298.46 787.088 1350.6 786.713C1388.39 786.432 1426.19 786.151 1463.98 785.739C1502.3 785.302 1616.26 783.328 1635.83 783.26C1645.04 783.234 1657.58 782.875 1666.66 784.338C1675.55 785.765 1673.7 797.151 1674.1 803.968C1674.69 814.619 1674.19 820.182 1664.58 822.312C1646.81 826.244 1566.67 826.192 1547.67 826.302C1509.76 826.552 1471.87 825.979 1433.97 826.645C1365.45 827.885 1296.78 826.458 1228.21 826.166C1127.79 825.755 1004.52 823.713 904.066 820.875C686.092 814.713 446.701 852.458 446.764 626.192C446.816 427.604 623.842 412.005 819.597 411.885Z" fill="#FFA68F"/>
<path d="M728.415 499.593C728.415 502.859 731.056 505.458 734.337 505.458H734.384C1035.45 502.38 1340.4 507.474 1641.47 520.604C1641.47 516.458 1641.42 512.552 1641.35 508.781C1340.3 495.635 1035.31 490.552 734.264 493.619C731.009 493.687 728.332 496.354 728.415 499.593Z" fill="#E2ECF1"/>
<path d="M1508.57 542.901C1321.06 540.646 1133.55 539.515 946.051 539.515C814.744 539.515 683.436 540.073 552.124 541.182C548.853 541.208 546.228 543.875 546.254 547.151C546.28 550.422 548.957 553.047 552.228 553.021C683.499 551.911 814.775 551.354 946.051 551.354C1133.51 551.354 1320.97 552.484 1508.42 554.739C1511.69 554.781 1514.36 552.166 1514.41 548.885C1514.45 545.62 1511.83 542.937 1508.57 542.901Z" fill="#E2ECF1"/>
<path d="M1598.57 631.286C1360.87 628.875 1112.55 625.448 864.384 625.448C746.285 625.448 628.228 626.218 511.368 628.26C508.098 628.312 505.493 631.005 505.551 634.286C505.608 637.552 508.306 640.151 511.572 640.099C628.348 638.062 746.337 637.286 864.384 637.286C1112.45 637.286 1360.71 640.713 1598.46 643.114C1601.72 643.151 1604.39 640.526 1604.43 637.26C1604.46 633.994 1601.83 631.312 1598.57 631.286Z" fill="#E2ECF1"/>
<path d="M1314.43 693.047C1149.94 693.047 970.837 692.807 801.884 692.807C717.4 692.807 635.457 692.859 559.145 693.047C555.874 693.047 553.233 695.698 553.238 698.979C553.249 702.244 555.905 704.885 559.171 704.875C635.473 704.698 717.41 704.645 801.884 704.645C970.832 704.645 1149.93 704.875 1314.43 704.875C1317.7 704.875 1320.35 702.234 1320.35 698.953C1320.35 695.687 1317.7 693.047 1314.43 693.047Z" fill="#E2ECF1"/>
<path d="M1616.84 749.781C1596.91 749.849 1547.35 749.885 1481.98 749.885C1306.33 749.885 1016.35 749.635 878.482 749.208C875.212 749.208 872.555 751.849 872.545 755.114C872.54 758.38 875.175 761.031 878.446 761.047C1016.34 761.474 1306.31 761.729 1481.98 761.729C1547.36 761.729 1596.91 761.687 1616.9 761.62C1620.16 761.604 1622.81 758.937 1622.79 755.672C1622.78 752.406 1620.11 749.765 1616.84 749.781Z" fill="#E2ECF1"/>
<path d="M892.982 590.474C888.842 650.208 889.477 714.302 885.488 769.286C869.753 751.567 844.753 733.833 829.008 716.088C806.795 729.937 785.805 745.739 766.383 763.271C764.883 706.192 763.373 649.099 761.889 592.005C801.201 593.755 892.982 590.474 892.982 590.474Z" fill="#FF724D"/>
<path d="M1683.69 215.328C1678.83 417.849 1418.19 377.781 1246.27 379.031C1149.14 379.687 795.473 377.244 729.249 376.244C666.994 375.364 603.421 377.38 540.811 373.994C532.822 294.218 533.947 208.046 534.895 141.817C535.072 130.645 535.134 120.515 535.186 111.354C535.186 107.208 535.238 103.302 535.296 99.5152C535.535 81.8746 536.186 68.26 538.327 57.6037C544.77 56.661 552.108 55.9527 560.4 55.234C726.702 41.5777 1228.14 38.5517 1323.26 43.286C1446.76 49.4996 1688 41.1506 1683.69 215.328Z" fill="white"/>
<path d="M1357.05 2.63507C1329.43 0.968407 1301.69 0.791323 1274.03 0.45799C1229.57 -0.0472179 1185.09 -0.0732589 1140.62 0.0881985C1086.94 0.27049 1033.22 0.791324 979.541 1.60382C924.186 2.43195 868.832 3.55174 813.499 5.12466C764.061 6.5257 714.619 8.23403 665.218 10.7549C617.556 13.1924 570.197 15.2861 522.952 21.9372C518.765 22.5257 514.504 23.1819 510.707 25.0465C501.478 29.5934 502.525 39.0049 502.702 47.9684C502.765 50.859 503.087 54.0726 505.27 55.9788C507.369 57.8174 510.468 57.7913 513.254 57.6715C542.192 56.4059 571.119 55.3122 600.056 54.0986C655.468 51.7809 710.864 49.484 766.285 47.2445C800.556 45.859 834.916 43.8851 869.228 43.3538C929.785 42.4059 990.348 41.7809 1050.88 41.4476C1102.79 41.1507 1154.72 41.0726 1206.63 41.4059C1239.83 41.6194 1273.06 41.7132 1306.23 43.0986C1307.59 43.1663 1308.95 43.2184 1310.33 43.2861C1438.26 49.4997 1688.14 41.1507 1683.71 215.328C1678.63 417.849 1408.64 377.781 1230.57 379.031C1198.82 379.031 1167.07 379.151 1135.33 379.073C1084.38 378.937 1033.43 378.713 982.488 378.432C930.337 378.151 878.192 377.817 826.061 377.448C788.254 377.166 750.473 376.885 712.681 376.474C674.369 376.047 560.421 374.073 540.811 373.994C531.608 373.968 519.082 373.604 510.015 375.073C501.113 376.515 502.957 387.885 502.577 394.698C501.983 405.364 502.468 410.927 512.077 413.047C529.848 416.968 609.973 416.927 628.978 417.047C666.895 417.286 704.806 416.729 742.723 417.38C811.218 418.619 879.895 417.208 948.447 416.911C1048.88 416.484 1149.34 415.849 1249.81 414.541C1388.93 412.765 1725.58 455.849 1729.9 216.927C1733.53 18.3642 1484.82 10.3278 1357.05 2.63507Z" fill="#FF724D"/>
<path d="M1448.24 90.3383C1448.24 93.5935 1445.58 96.1925 1442.33 96.1925H1442.27C1141.22 93.1248 836.243 98.2081 535.186 111.354C535.186 107.208 535.238 103.302 535.295 99.5154C836.378 86.38 1141.34 81.2862 1442.39 84.3644C1445.66 84.4216 1448.3 87.0883 1448.24 90.3383Z" fill="#E2ECF1"/>
<path d="M668.254 145.484C855.624 143.218 1043.02 142.099 1230.4 142.099C1361.75 142.099 1493.1 142.645 1624.45 143.755C1627.71 143.781 1630.38 141.151 1630.42 137.885C1630.45 134.619 1627.82 131.953 1624.55 131.911C1493.17 130.807 1361.79 130.26 1230.4 130.26C1042.97 130.26 855.53 131.38 668.108 133.645C664.842 133.687 662.222 136.364 662.264 139.635C662.301 142.901 664.983 145.526 668.254 145.484Z" fill="#E2ECF1"/>
<path d="M578.197 233.849C815.916 231.448 1064.18 228.021 1312.22 228.021C1430.29 228.021 1548.29 228.791 1665.09 230.833C1668.35 230.885 1671.06 228.286 1671.11 225.021C1671.17 221.755 1668.57 219.047 1665.3 218.994C1548.41 216.968 1430.34 216.192 1312.22 216.192C1064.07 216.192 815.765 219.619 578.082 222.021C574.811 222.047 572.192 224.729 572.223 227.994C572.254 231.26 574.931 233.885 578.197 233.849Z" fill="#E2ECF1"/>
<path d="M862.217 295.604C1026.74 295.604 1205.82 295.38 1374.76 295.38C1459.23 295.38 1541.17 295.432 1617.48 295.604C1620.75 295.619 1623.4 292.979 1623.4 289.713C1623.42 286.432 1620.78 283.781 1617.51 283.781C1541.18 283.593 1459.24 283.541 1374.76 283.541C1205.82 283.541 1026.72 283.781 862.217 283.781C858.952 283.781 856.301 286.421 856.301 289.687C856.301 292.968 858.952 295.604 862.217 295.604Z" fill="#E2ECF1"/>
<path d="M559.753 352.354C579.821 352.422 629.701 352.458 695.509 352.458C871.253 352.458 1160.54 352.208 1298.21 351.781C1301.47 351.765 1304.11 349.114 1304.11 345.849C1304.1 342.578 1301.45 339.937 1298.16 339.937C1160.52 340.364 871.243 340.62 695.509 340.62C629.712 340.62 579.821 340.594 559.795 340.515C556.524 340.5 553.868 343.14 553.857 346.406C553.842 349.672 556.482 352.338 559.753 352.354Z" fill="#E2ECF1"/>
<path d="M1283.67 181.219C1287.82 240.937 1287.21 305.031 1291.16 360.031C1306.9 342.302 1331.91 324.567 1347.66 306.833C1369.86 320.672 1390.83 336.484 1410.28 354.021C1411.79 296.927 1413.27 239.817 1414.78 182.739C1375.47 184.484 1283.67 181.219 1283.67 181.219Z" fill="#8A63D5"/>
<path d="M1742.06 1069.21C1741.82 1109.58 1743.48 1152.19 1699.81 1155.21C1635.47 1159.7 1083.42 1158.41 899.004 1157.46C888.696 1157.46 879.587 1157.4 871.717 1157.27C864.972 1157.27 859.238 1157.27 854.493 1157.22C772.951 1156.64 641.441 1152.48 559.826 1151.36C538.998 1151.07 515.212 1153.26 494.852 1144.97C466.977 1133.66 464.368 1106.21 463.134 1076.14C461.306 1032.34 460.811 871.484 476.623 843.791C484.535 829.875 498.634 821.661 512.957 818.406C551.076 809.755 596.228 817.218 634.978 817.755C676.879 818.27 718.863 818.927 760.764 819.458C798.863 819.937 837.045 820.422 875.144 820.885C883.67 821.005 892.139 821.125 900.592 821.244C990.389 822.364 1080.15 823.484 1169.94 824.619C1245.06 825.567 1320.15 826.515 1395.21 827.458C1447.74 828.166 1500.3 828.817 1552.79 830.645C1585.28 831.781 1617.84 829.578 1650.33 831.885C1673.23 833.5 1712.05 828.885 1727.19 853.38C1740.98 875.739 1740.23 944.047 1739.81 977.073C1739.45 1004.58 1742.24 1041.69 1742.06 1069.21Z" fill="#38405F"/>
<path d="M787.17 819.781C778.373 819.672 769.566 819.567 760.774 819.448C748.446 819.286 736.092 819.114 723.759 818.953C723.514 930.885 715.415 1042.71 714.649 1154.67C737.696 1155.21 760.587 1155.73 782.415 1156.15C785.399 1044.06 786.785 931.927 787.17 819.781Z" fill="#61667B"/>
<path d="M900.592 821.244C900.42 933.328 899.951 1045.42 899.003 1157.46C888.696 1157.46 879.587 1157.4 871.717 1157.27C872.378 1045.12 874.675 933.031 875.144 820.885C883.67 821.005 892.139 821.125 900.592 821.244Z" fill="#61667B"/>
<path d="M1525.86 1035.48C1525.91 1039.87 1526.06 1044.57 1528.57 1048.17C1532.48 1053.83 1540.38 1054.64 1547.26 1054.83C1571.66 1055.54 1596.06 1055.41 1620.46 1054.46C1629.74 1054.1 1633.51 1051.21 1634.27 1041.53C1635.42 1005.99 1636.38 971.396 1634.67 935.833C1634.54 933.286 1634.38 930.62 1632.95 928.515C1630.45 924.807 1625.22 924.38 1620.75 924.328C1603.35 924.125 1585.98 923.911 1568.59 923.713C1557.63 923.578 1538.29 920.364 1529.76 929.526C1524.35 935.354 1525.7 944.312 1525.21 951.526C1524.64 960.38 1524.51 969.245 1524.62 978.193C1524.86 997.286 1525.59 1016.38 1525.86 1035.48Z" fill="#61667B"/>
</svg>